<?xml version="1.0" standalone="no"?>
<!DOCTYPE svg PUBLIC "-//W3C//DTD SVG 20010904//EN"
 "http://www.w3.org/TR/2001/REC-SVG-20010904/DTD/svg10.dtd">
<svg version="1.0" xmlns="http://www.w3.org/2000/svg"
 width="16.000000pt" height="16.000000pt" viewBox="0 0 16.000000 16.000000"
 preserveAspectRatio="xMidYMid meet">

<g transform="translate(0.000000,16.000000) scale(0.100000,-0.100000)"
fill="#000000" stroke="none">
<path d="M26 89 c-22 -61 -15 -71 45 -67 41 3 45 5 57 42 7 21 10 41 8 43 -3
3 -10 -13 -16 -36 -11 -41 -11 -41 -58 -39 l-47 1 44 6 c41 6 45 8 56 48 7 23
10 45 7 48 -3 3 -22 5 -42 5 -34 0 -37 -2 -54 -51z m77 24 c-7 -2 -21 -2 -30
0 -10 3 -4 5 12 5 17 0 24 -2 18 -5z m-10 -20 c-7 -2 -21 -2 -30 0 -10 3 -4 5
12 5 17 0 24 -2 18 -5z"/>
</g>
</svg>
