<?xml version="1.0" standalone="no"?>
<!DOCTYPE svg PUBLIC "-//W3C//DTD SVG 20010904//EN"
 "http://www.w3.org/TR/2001/REC-SVG-20010904/DTD/svg10.dtd">
<svg version="1.0" xmlns="http://www.w3.org/2000/svg"
 width="300.000000pt" height="146.000000pt" viewBox="0 0 300.000000 146.000000"
 preserveAspectRatio="xMidYMid meet">
<metadata>
Created by potrace 1.10, written by Peter Selinger 2001-2011
</metadata>
<g transform="translate(0.000000,146.000000) scale(0.100000,-0.100000)"
fill="#000000" stroke="none">
<path d="M105 1443 c-22 -8 -55 -12 -72 -9 -32 5 -46 -8 -20 -17 9 -3 9 -9 -1
-27 -17 -28 -8 -38 16 -17 20 18 102 39 102 27 0 -10 -58 -120 -70 -134 -5 -4
-16 6 -24 23 -9 17 -19 31 -21 31 -5 0 31 -78 40 -88 2 -2 24 37 51 87 26 50
49 89 52 87 2 -3 -10 -31 -27 -62 -24 -44 -28 -60 -19 -66 12 -7 4 -12 -14 -9
-4 0 -21 -26 -38 -58 -16 -33 -34 -63 -41 -66 -6 -4 -1 11 10 32 13 26 16 44
10 54 -7 11 -9 8 -9 -10 0 -14 -7 -33 -17 -43 -14 -16 -14 -22 -3 -43 11 -20
11 -27 -1 -41 -11 -14 -11 -18 -1 -22 10 -3 10 -7 1 -18 -12 -15 -6 -44 10
-44 5 0 16 6 23 14 12 11 18 10 39 -8 13 -11 33 -31 43 -43 18 -22 18 -24 1
-43 -14 -15 -15 -20 -4 -20 11 0 12 -2 1 -9 -8 -4 -13 -12 -12 -17 1 -5 -4
-10 -11 -13 -7 -2 -9 1 -4 9 6 10 1 12 -25 7 -18 -4 -36 -7 -41 -7 -5 0 -6 -7
-2 -16 4 -10 0 -20 -10 -26 -17 -9 -24 -58 -9 -58 4 0 37 25 72 55 36 30 68
55 71 55 4 0 12 -6 18 -14 9 -10 8 -16 -4 -26 -8 -7 -15 -18 -15 -24 0 -6 5
-4 10 4 9 13 11 13 20 0 7 -12 3 -18 -21 -28 -30 -13 -54 -8 -33 6 13 8 25 62
14 62 -9 0 -50 -44 -50 -54 0 -4 4 -4 10 -1 5 3 7 0 4 -8 -3 -8 2 -20 11 -27
13 -11 21 -11 36 -2 31 20 40 14 37 -24 -2 -37 -12 -52 -23 -34 -3 5 -18 7
-34 4 -21 -5 -35 1 -57 21 -16 15 -23 24 -17 20 8 -4 11 -1 7 8 -3 8 2 17 11
21 9 3 13 10 10 16 -7 12 -64 -28 -64 -46 -1 -6 17 -21 40 -33 22 -13 38 -25
36 -28 -3 -2 -23 7 -45 21 -37 23 -52 24 -52 4 0 -4 7 -8 15 -8 28 0 145 -72
145 -90 0 -13 -128 -110 -145 -110 -8 0 -15 -4 -15 -8 0 -23 17 -19 57 14 24
20 47 34 50 31 3 -3 -16 -20 -41 -38 -25 -18 -46 -38 -46 -43 0 -6 14 -19 31
-29 18 -10 29 -20 26 -23 -3 -4 -18 3 -33 15 -31 24 -44 27 -44 8 0 -8 6 -14
13 -14 21 0 152 -94 163 -116 14 -32 40 -44 64 -29 33 20 53 16 46 -12 -8 -34
15 -52 46 -35 43 23 74 17 69 -13 0 -5 4 -8 10 -8 5 0 7 -4 4 -10 -3 -5 -1
-10 4 -10 6 0 11 -8 11 -19 0 -24 25 -45 46 -37 12 5 15 13 10 34 -4 15 -7 34
-6 42 0 8 0 23 1 32 0 10 4 20 9 23 6 4 302 -21 465 -39 22 -2 67 -7 100 -11
38 -4 68 -14 81 -26 18 -17 25 -18 48 -8 14 7 26 18 26 25 0 14 38 54 52 54 4
0 5 -7 2 -15 -8 -19 23 -32 39 -16 9 10 8 16 -7 27 -11 7 -18 15 -15 17 56 41
89 44 89 7 0 -27 27 -37 46 -18 14 13 14 17 0 31 -10 10 -12 18 -6 22 5 3 10
15 10 25 0 11 12 27 26 36 22 15 27 15 35 3 6 -10 9 -6 9 15 0 28 0 28 -26 11
-14 -9 -28 -15 -30 -12 -5 5 58 47 70 47 4 0 4 -4 1 -10 -9 -15 8 -12 31 5 28
21 57 19 49 -4 -7 -24 18 -45 45 -36 29 9 25 22 -12 45 -36 22 -73 26 -83 10
-9 -15 -25 -12 -19 4 8 21 42 26 77 11 28 -12 34 -11 51 3 11 10 16 11 11 3
-6 -10 -2 -12 15 -6 19 6 21 4 15 -14 -3 -11 -1 -29 5 -38 10 -16 10 -15 5 4
-3 12 -1 32 5 44 7 12 8 19 3 16 -5 -3 -15 -2 -23 4 -11 6 -7 9 15 10 26 0 27
2 10 9 -16 7 -16 9 -4 9 21 1 31 24 34 76 1 22 5 48 10 58 4 10 3 17 -3 17
-12 0 -27 -38 -24 -58 2 -6 -4 -12 -12 -12 -8 0 -19 -8 -25 -17 -5 -10 -12
-15 -15 -12 -3 3 8 24 24 46 l30 41 -31 6 c-19 3 -28 10 -23 17 5 8 9 8 14 -1
4 -6 18 -10 31 -8 21 3 24 8 23 41 -1 20 3 37 7 37 5 0 9 -7 9 -16 0 -8 5 -12
10 -9 6 4 8 10 5 15 -4 6 15 20 35 24 31 7 100 30 100 33 0 13 -32 63 -41 63
-6 0 -9 8 -7 18 5 24 33 22 34 -3 0 -11 6 -31 14 -45 8 -14 15 -33 17 -43 8
-50 27 -64 67 -48 15 6 16 10 7 16 -8 4 -16 2 -21 -5 -5 -8 -13 -4 -28 15 -25
32 -19 58 12 50 17 -5 18 -4 6 4 -8 6 -23 11 -34 11 -13 0 -16 5 -12 17 4 9 1
20 -6 25 -8 5 0 7 22 4 88 -12 160 -16 160 -9 0 5 -10 9 -22 9 -71 1 -99 5
-96 15 2 6 54 33 116 60 136 59 164 59 247 -5 30 -22 73 -54 95 -70 23 -15 40
-30 38 -32 -5 -4 -180 14 -204 22 -16 5 -16 4 -4 -5 13 -9 11 -11 -7 -11 -29
0 -54 10 -48 21 8 12 -29 29 -44 19 -8 -4 -10 -13 -7 -19 5 -8 0 -8 -18 -1
-14 5 -28 5 -31 1 -7 -12 60 -23 155 -26 41 -2 99 -8 129 -14 29 -6 64 -11 77
-11 21 0 22 3 14 25 -6 15 -6 26 0 30 10 6 14 -7 11 -32 -2 -13 40 -45 48 -37
3 3 -5 14 -19 24 -14 11 -20 20 -14 20 6 0 17 -7 24 -15 16 -19 30 -19 30 0 0
8 5 15 11 15 6 0 9 -6 6 -14 -7 -17 11 -41 36 -49 21 -8 31 10 25 45 -4 23 -5
23 -16 -4 -12 -30 -26 -40 -15 -11 5 12 3 14 -8 9 -8 -4 -6 -1 3 7 12 9 14 17
7 24 -7 7 -3 10 13 9 12 0 23 4 23 11 0 17 15 29 16 12 1 -8 2 -18 3 -24 1 -5
6 -32 10 -58 7 -38 14 -51 37 -63 31 -15 40 -5 14 16 -8 7 -15 17 -15 22 0 6
6 6 14 -1 9 -8 16 -8 20 -2 4 5 1 13 -5 16 -6 5 -3 13 11 22 19 13 20 17 7 32
-8 9 -17 24 -21 35 -5 15 -2 17 14 13 12 -3 17 -1 14 5 -6 9 23 37 39 38 4 0
7 -12 7 -26 0 -14 -4 -23 -9 -20 -5 3 -14 -1 -21 -9 -11 -13 -10 -21 1 -41 8
-16 15 -21 18 -13 2 7 13 21 25 30 17 14 18 19 7 33 -7 9 -10 16 -5 16 21 -1
29 -17 23 -50 -3 -19 -7 -26 -8 -15 -2 18 -4 17 -14 -5 -6 -14 -20 -34 -31
-45 -18 -19 -19 -19 -12 -1 5 16 4 17 -9 6 -17 -14 -21 -35 -5 -25 16 10 12
-11 -5 -25 -17 -14 -12 -25 14 -40 15 -8 23 -3 46 30 18 26 25 45 20 59 -4 12
-2 21 4 21 6 0 11 -16 11 -35 0 -20 6 -37 15 -43 10 -5 13 -15 9 -25 -8 -23
-24 -21 -24 2 0 27 -20 37 -21 12 -1 -12 -2 -27 -3 -33 -1 -7 10 -14 23 -14
13 -1 27 -7 31 -13 12 -20 64 -44 68 -32 4 13 32 15 32 2 0 -5 -8 -11 -17 -15
-10 -3 -24 -9 -30 -12 -8 -3 -13 1 -13 10 0 15 -16 21 -52 18 -10 -1 -22 7
-28 18 -14 26 -30 26 -30 0 0 -14 9 -21 38 -25 63 -11 60 -14 -13 -13 -39 0
-80 -2 -92 -6 -16 -5 -22 -2 -27 19 -8 31 -24 31 -72 3 l-37 -22 37 -34 c21
-18 35 -36 32 -39 -3 -3 -16 8 -30 23 -17 20 -26 24 -26 14 -1 -13 -18 16 -25
43 -2 4 -4 10 -5 15 -1 4 -2 11 -1 15 1 5 -3 6 -8 3 -5 -3 -16 5 -25 19 -19
28 -10 34 10 8 13 -17 13 -17 14 0 0 22 -27 34 -43 18 -15 -15 -30 -14 -24 3
6 15 -10 36 -27 36 -6 0 -33 -20 -61 -45 -27 -25 -53 -45 -57 -45 -13 0 -9 18
6 23 21 8 146 110 146 119 0 16 -29 8 -33 -9 -4 -15 -5 -14 -6 2 -1 12 -8 21
-19 22 -9 1 -82 8 -162 17 -140 15 -192 20 -324 30 -59 5 -60 5 -16 -5 25 -6
61 -10 80 -10 27 0 30 -2 15 -8 -12 -5 5 -7 45 -7 59 1 65 -1 65 -19 -1 -29
25 -42 41 -20 7 10 11 22 8 27 -3 5 13 8 38 6 35 -2 42 -6 40 -21 -5 -27 17
-50 34 -36 8 6 23 9 34 6 10 -3 24 1 31 9 13 16 65 19 74 4 6 -10 -62 -80 -78
-80 -4 0 -21 -9 -36 -21 -23 -17 -32 -19 -50 -10 -12 7 -21 21 -21 35 0 34
-23 50 -51 36 -17 -10 -19 -14 -8 -21 10 -6 7 -9 -11 -10 -24 -1 -24 -1 3 -9
27 -8 56 -35 57 -52 0 -5 -9 -8 -20 -8 -15 0 -20 -7 -20 -25 0 -16 -6 -25 -15
-25 -8 0 -15 -5 -15 -11 0 -7 -9 -9 -21 -6 -16 4 -19 3 -11 -5 8 -8 18 -8 36
-1 17 9 27 8 35 0 9 -9 10 -2 7 26 -4 27 -1 37 9 37 9 0 12 -9 10 -27 l-3 -27
18 22 c10 12 23 22 28 22 5 0 15 7 22 15 7 8 18 15 24 15 6 0 -2 -11 -18 -23
-19 -15 -25 -26 -18 -31 6 -4 18 4 28 19 26 40 44 32 45 -22 1 -27 1 -54 0
-61 -1 -6 8 -13 21 -13 20 -1 21 -2 3 -6 -39 -10 -41 -25 -2 -18 26 5 37 4 37
-5 0 -6 -8 -9 -17 -6 -10 3 -25 1 -33 -4 -13 -9 -13 -11 0 -19 23 -15 3 -25
-27 -13 -15 6 -53 13 -83 16 -30 2 -44 1 -30 -3 24 -7 -1 -15 -150 -47 -13 -3
-30 -10 -37 -16 -10 -8 -22 -6 -47 7 -23 13 -41 16 -62 10 -16 -4 -23 -10 -16
-12 24 -9 12 -23 -15 -17 -56 12 -139 24 -175 25 -35 1 -56 19 -23 19 8 0 15
5 15 10 0 15 -16 12 -29 -4 -10 -12 -9 -20 4 -40 20 -30 32 -32 54 -12 9 8 27
12 42 9 22 -4 25 -9 23 -39 -2 -24 2 -37 12 -41 20 -8 33 7 36 40 1 15 3 27 5
27 1 0 13 -4 27 -10 19 -7 29 -6 41 6 8 9 13 20 10 25 -8 12 26 -1 45 -17 8
-7 19 -13 23 -12 5 0 12 -4 15 -8 4 -4 1 -4 -5 0 -18 10 -17 -28 1 -43 17 -14
49 -3 42 15 -3 8 0 14 7 14 7 0 4 5 -5 11 -10 5 -15 16 -11 25 4 12 8 11 20
-6 21 -30 51 -26 49 7 -1 16 5 27 14 30 130 29 185 32 176 7 -3 -7 2 -18 11
-25 12 -11 17 -11 27 2 26 36 109 54 118 27 4 -16 -70 -89 -78 -77 -6 11 -34
-8 -34 -23 0 -10 51 -57 63 -58 12 0 8 28 -5 33 -7 2 -10 8 -6 12 5 5 16 -2
27 -13 23 -27 35 -29 19 -2 -11 17 -8 24 20 53 46 48 40 58 -8 12 -29 -28 -40
-34 -40 -22 0 9 7 17 15 17 8 0 15 7 15 15 0 8 6 15 14 15 16 0 40 26 29 32
-4 3 -3 3 4 2 17 -4 42 28 26 33 -7 2 -9 11 -6 20 4 10 2 14 -5 9 -6 -3 -13
-2 -16 3 -7 10 16 21 45 21 23 0 25 -15 4 -24 -8 -3 -15 -11 -15 -17 0 -8 5
-7 16 2 26 21 86 12 110 -18 14 -16 24 -21 28 -14 4 6 3 11 -2 11 -24 0 -20
33 6 55 29 26 42 31 42 15 0 -5 -7 -10 -15 -10 -8 0 -15 -4 -15 -9 0 -4 11 -6
25 -3 15 2 25 0 25 -7 0 -7 4 -10 9 -7 4 3 16 -3 26 -14 10 -11 22 -17 27 -14
17 11 37 -30 33 -68 -6 -65 -19 -72 -61 -33 -15 14 -23 25 -19 25 4 0 2 7 -5
15 -7 8 -9 15 -4 15 4 0 -2 11 -15 23 -13 15 -19 30 -15 40 3 10 1 17 -6 17
-6 0 -8 -6 -4 -12 6 -10 4 -10 -7 0 -32 30 -39 3 -9 -35 11 -14 17 -30 13 -37
-4 -6 2 -4 12 4 16 13 18 13 13 0 -5 -14 42 -85 66 -102 6 -4 7 -10 3 -14 -3
-4 -15 4 -25 16 -20 25 -44 20 -40 -8 2 -14 -5 -17 -38 -17 -35 0 -41 -3 -39
-18 3 -12 -3 -17 -23 -18 -71 -3 -89 -5 -108 -12 -16 -5 -23 -3 -28 9 -4 12
-2 15 9 11 16 -7 48 33 59 73 5 18 5 21 -3 10 -5 -8 -14 -11 -18 -6 -4 5 -2
11 5 13 16 6 16 23 -1 23 -8 0 -20 11 -27 25 -7 13 -17 22 -22 19 -4 -3 1 -19
13 -35 l20 -29 -30 -30 c-16 -17 -24 -30 -18 -30 7 -1 1 -7 -13 -15 -14 -8
-19 -14 -12 -15 7 0 11 -4 8 -8 -3 -5 13 -26 34 -47 22 -22 40 -44 40 -50 -1
-5 -18 9 -39 33 -22 23 -41 39 -43 35 -3 -5 -4 -3 -2 4 1 6 -6 19 -17 29 -10
9 -19 12 -19 6 0 -6 5 -14 10 -17 6 -4 8 -11 4 -16 -8 -14 15 -39 31 -33 13 6
87 -73 108 -116 14 -29 50 -34 55 -8 2 11 -17 37 -52 70 -31 29 -56 58 -56 65
0 14 7 16 100 17 43 1 73 7 89 18 13 10 28 15 32 12 4 -2 10 0 14 6 12 20 40
9 62 -25 l22 -34 -26 -20 c-25 -21 -37 -25 -59 -22 -6 1 -17 -6 -24 -14 -10
-12 -10 -18 0 -30 18 -21 28 -19 67 15 18 17 42 30 53 30 10 0 34 -18 52 -41
31 -36 34 -38 33 -17 0 13 -8 36 -17 51 -22 33 -22 34 2 40 11 3 20 10 20 16
0 13 -20 14 -40 1 -24 -15 -40 9 -40 61 0 53 -1 54 -33 38 -19 -9 -20 -8 -6 3
29 24 37 52 29 95 -4 24 -13 49 -20 58 -7 8 -9 15 -6 15 10 0 36 -27 36 -36 0
-5 7 -27 16 -50 12 -32 21 -41 38 -41 13 0 23 6 23 13 0 10 -7 12 -21 8 -20
-6 -20 -6 -5 12 9 11 14 25 11 33 -3 8 0 11 7 7 17 -11 13 0 -6 15 -11 10 -14
10 -9 2 5 -9 0 -13 -13 -13 -19 0 -22 4 -20 28 0 4 7 6 16 4 12 -3 12 1 -4 22
-10 14 -21 26 -25 26 -5 0 -8 5 -8 10 0 19 15 9 44 -30 16 -22 32 -38 34 -35
3 2 -1 12 -9 21 -12 15 -12 18 0 22 9 3 4 9 -15 17 l-29 12 28 13 c30 14 36
37 12 46 -19 8 -175 -17 -175 -27 0 -4 16 -5 37 -2 29 5 34 4 27 -8 -5 -8 -9
-20 -9 -28 0 -8 -8 -15 -18 -17 -15 -2 -16 0 -5 14 7 9 8 13 2 9 -6 -4 -19 2
-29 13 -15 16 -21 18 -33 7 -13 -10 -14 -9 -8 1 6 10 -3 11 -36 8 -24 -3 -35
-3 -25 0 9 3 17 10 17 15 0 6 9 8 20 4 10 -3 61 1 112 11 51 9 97 17 103 18
35 4 48 61 16 71 -12 4 -18 12 -14 21 4 10 9 11 18 4 9 -7 12 -2 12 21 0 20
-4 28 -13 25 -7 -3 -15 0 -18 7 -2 7 -5 -5 -6 -25 -2 -21 -4 -42 -5 -48 -1 -5
-3 -16 -4 -22 -1 -10 -4 -9 -10 1 -5 8 -7 21 -4 30 4 14 3 14 -6 1 -13 -18
-24 -8 -15 14 4 9 13 15 20 12 9 -4 14 2 14 17 0 12 3 33 6 47 3 15 -7 4 -25
-28 -41 -68 -52 -68 -14 0 32 56 53 72 53 39 0 -12 6 -21 15 -21 19 0 21 71 3
101 -10 17 -10 23 0 26 6 3 12 11 12 20 0 8 -6 13 -12 10 -7 -2 -25 3 -40 11
-28 16 -37 32 -19 32 5 0 13 9 16 20 4 11 10 18 15 15 14 -9 32 23 25 46 -5
14 -4 19 4 15 6 -4 11 0 11 8 0 9 -3 16 -6 16 -16 0 -93 -56 -94 -68 0 -7 -4
-11 -9 -8 -4 3 -17 -1 -27 -9 -19 -13 -19 -14 1 -29 28 -21 34 -20 41 9 3 14
13 25 21 25 11 0 10 -6 -6 -25 -11 -15 -18 -35 -16 -45 4 -20 51 -89 70 -102
5 -4 7 -9 4 -13 -3 -3 -22 10 -42 29 -51 48 -93 77 -101 69 -3 -3 -6 5 -6 18
0 13 4 20 8 14 4 -5 16 -12 26 -13 17 -3 18 -2 7 12 -8 9 -24 16 -37 16 -35 0
-30 29 8 42 l31 11 -22 19 c-13 10 -22 19 -20 19 2 1 13 3 24 4 11 1 31 5 45
10 24 7 24 7 5 -9 -11 -8 -27 -16 -34 -16 -10 0 -12 -3 -5 -10 14 -14 106 46
122 79 18 38 14 44 -14 22 -32 -25 -57 -27 -78 -6 -19 19 -30 19 -46 0 -19
-22 -32 -18 -19 6 8 15 8 24 0 32 -13 13 -43 19 -35 6 3 -5 0 -9 -7 -9 -8 0
-6 -6 4 -18 20 -22 21 -32 6 -32 -16 0 -59 52 -59 71 0 22 -29 33 -46 18 -16
-13 -19 -39 -5 -39 12 0 21 -39 10 -46 -5 -3 -7 -10 -4 -15 6 -9 5 -10 -35
-14 -14 -1 -108 -11 -209 -21 -140 -13 -186 -15 -189 -6 -6 19 -40 14 -55 -8
-25 -35 -281 -148 -334 -147 -23 0 -34 7 -42 24 -12 27 -24 29 -41 8 -10 -13
-10 -19 5 -34 16 -19 15 -20 -21 -30 -42 -12 -54 -4 -54 36 0 12 -5 25 -11 29
-16 10 -59 -17 -59 -37 0 -9 -8 -26 -17 -38 -15 -17 -30 -22 -78 -23 -33 0
-64 -4 -70 -8 -5 -3 -19 -6 -30 -6 -17 1 -20 7 -18 39 2 31 -1 37 -17 37 -13
0 -20 -7 -20 -19 0 -26 -22 -42 -40 -31 -23 15 -40 12 -47 -7 -7 -19 -22 -33
-36 -33 -5 0 -6 4 -3 9 3 5 -1 11 -9 14 -10 4 -12 1 -9 -11 5 -14 3 -13 -10 2
-9 11 -16 23 -16 28 0 4 -9 -1 -20 -12 -26 -26 -44 -26 -37 1 8 31 -2 49 -30
49 -13 0 -22 -4 -19 -9 4 -5 0 -11 -6 -14 -10 -3 -10 -7 1 -21 8 -9 16 -14 19
-11 3 3 10 -5 16 -17 13 -26 87 -49 94 -29 2 6 8 11 14 11 6 0 7 -7 4 -16 -8
-20 3 -64 16 -64 5 0 6 10 3 23 -5 17 -4 19 4 7 9 -13 15 -8 12 12 0 4 8 6 19
5 11 -1 20 -4 20 -8 0 -4 14 -12 31 -19 22 -10 27 -15 17 -21 -7 -5 -8 -9 -3
-9 6 0 16 4 23 9 10 6 5 11 -17 21 -17 7 -28 17 -25 22 5 8 27 7 149 -7 36 -5
37 -4 15 6 -14 6 -77 12 -141 13 -92 1 -115 4 -111 14 6 18 51 34 66 25 7 -5
4 -1 -6 9 -10 9 -18 19 -18 22 0 8 34 -6 41 -17 3 -5 35 -11 70 -14 40 -4 56
-9 44 -13 -14 -5 -5 -9 32 -17 47 -9 51 -8 50 9 -1 15 -7 17 -29 13 -16 -4
-28 -2 -28 4 0 5 8 10 18 10 9 0 31 3 47 6 17 3 40 8 51 10 12 3 27 18 34 34
15 36 46 66 54 52 4 -5 -4 -17 -16 -26 -20 -13 -21 -17 -8 -26 13 -9 13 -10
-2 -6 -9 3 -19 -1 -22 -9 -4 -11 0 -15 17 -12 14 2 23 11 25 26 2 12 7 20 12
17 5 -3 6 -13 3 -21 -5 -14 0 -15 38 -9 24 3 52 9 63 12 12 3 16 1 12 -6 -4
-6 -1 -11 6 -11 7 -1 -13 -14 -44 -31 -52 -26 -74 -49 -48 -49 6 0 10 4 10 8
0 8 43 32 56 32 3 0 -3 -12 -14 -27 -13 -18 -29 -27 -48 -28 -21 0 -29 -5 -29
-18 0 -10 -7 -22 -15 -27 -13 -8 -12 -10 3 -10 9 0 17 -7 17 -15 0 -19 -9 -19
-30 0 -15 13 -24 14 -64 3 -28 -7 -48 -19 -52 -30 -3 -10 -10 -18 -16 -18 -6
0 -6 6 2 15 17 21 -6 20 -27 0 -24 -24 -9 -29 53 -16 32 6 64 11 73 11 14 0
14 -2 1 -11 -12 -9 -11 -10 8 -6 26 6 27 -1 4 -29 -26 -31 -78 -38 -108 -15
-13 10 -20 21 -17 25 3 3 -1 6 -10 6 -10 0 -17 -7 -17 -15 0 -8 5 -15 11 -15
14 0 55 -32 57 -45 1 -6 -23 -10 -57 -10 -33 -1 -58 2 -55 6 4 8 -46 22 -53
15 -2 -2 4 -7 15 -10 11 -4 23 -13 26 -21 3 -8 12 -12 21 -9 12 5 15 -2 15
-30 0 -20 -4 -36 -10 -36 -5 0 -10 5 -10 10 0 15 -52 59 -70 60 -9 0 -7 -5 8
-16 12 -8 22 -21 22 -29 0 -9 6 -12 15 -9 8 4 15 1 15 -5 0 -6 -5 -11 -11 -11
-5 0 -8 -4 -5 -8 7 -11 -92 -75 -104 -67 -6 3 -7 -2 -4 -12 5 -16 3 -15 -11 2
-9 11 -19 25 -23 32 -4 6 -25 14 -47 17 l-40 5 39 -12 c35 -12 66 -39 66 -58
0 -15 -35 -15 -53 0 -24 20 -47 0 -30 -28 9 -15 7 -20 -18 -35 -41 -24 -63
-13 -85 42 -11 26 -20 50 -22 54 -2 3 5 8 15 11 13 3 11 5 -7 7 -23 1 -23 2
-5 10 17 7 17 9 3 9 -24 1 -23 13 3 29 16 11 18 16 9 27 -7 9 -21 13 -34 9
-18 -4 -24 1 -36 30 -7 20 -17 36 -22 36 -5 0 -1 -17 7 -37 117 -277 118 -303
8 -202 -133 122 -148 134 -170 136 -32 4 -28 -4 10 -21 17 -7 64 -43 102 -80
55 -52 64 -64 41 -56 -16 6 -34 14 -40 18 -6 3 -17 7 -25 9 -8 1 -58 18 -112
38 -103 39 -113 49 -122 120 -3 26 -4 25 -7 -10 -2 -39 -3 -39 -10 -10 l-8 30
-1 -27 c0 -15 -5 -30 -11 -33 -11 -7 -65 19 -76 36 -5 8 -3 9 5 4 7 -4 22 2
35 14 14 13 29 19 39 15 11 -4 17 -1 17 7 0 7 -3 9 -7 6 -3 -4 -13 -2 -20 5
-11 9 -17 9 -25 -3 -8 -11 -9 -11 -5 2 4 12 -1 18 -17 21 -33 7 -69 -9 -62
-27 3 -8 1 -17 -4 -20 -19 -12 -9 -35 18 -41 15 -4 32 -10 37 -14 22 -16 75
-29 80 -19 4 5 11 7 16 3 5 -3 7 -9 4 -14 -3 -4 28 -21 67 -36 198 -74 303
-115 308 -121 9 -10 -38 7 -239 83 -107 41 -196 72 -199 69 -7 -7 -7 -7 73
-33 39 -13 99 -36 135 -52 36 -15 76 -32 90 -38 l25 -11 -30 0 c-28 -1 -143
10 -275 25 -53 6 -75 8 -139 12 -28 2 -48 29 -55 78 -2 10 -8 20 -14 22 -13 4
-16 -10 -5 -22 10 -10 13 -37 2 -31 -13 9 -49 -14 -49 -30 0 -18 7 -19 355
-50 160 -15 301 -30 315 -35 18 -7 12 -8 -25 -4 -151 14 -371 35 -527 50
l-177 17 -35 -26 c-38 -29 -46 -32 -46 -17 0 6 7 10 15 10 8 0 12 6 9 14 -4
11 0 13 17 9 15 -4 20 -3 15 5 -4 7 -29 12 -57 12 -27 0 -49 4 -49 9 0 6 16 8
35 5 19 -2 50 -6 69 -8 18 -2 39 1 45 7 9 9 14 9 20 -1 5 -9 8 -2 9 19 0 17 6
37 12 43 9 8 11 5 5 -12 -6 -22 -5 -23 15 -12 16 8 19 15 11 24 -8 10 -6 18 9
31 18 17 19 19 3 30 -20 15 -43 9 -43 -11 0 -8 -4 -14 -9 -14 -13 0 -33 28
-27 38 8 13 46 22 46 11 0 -4 7 -6 16 -2 10 4 22 -1 30 -12 11 -14 16 -15 28
-6 11 9 15 8 20 -5 4 -11 2 -15 -8 -11 -15 6 -40 -16 -30 -26 3 -3 17 -1 30 5
30 14 31 45 1 53 -35 10 -89 36 -84 41 2 2 21 -3 42 -11 20 -9 39 -15 41 -13
6 7 -8 48 -15 43 -4 -2 -8 9 -8 25 0 17 4 30 9 30 4 0 8 -9 8 -20 0 -11 6 -20
13 -20 10 0 12 16 9 66 l-4 66 26 -17 c15 -10 29 -15 32 -12 3 3 -6 13 -20 22
-21 14 -29 15 -41 5 -9 -7 -13 -20 -10 -29 2 -9 0 -23 -6 -31 -9 -12 -10 -10
-6 8 4 15 1 22 -6 19 -7 -2 -11 -13 -9 -25 2 -11 -2 -23 -7 -26 -6 -4 -8 -13
-5 -20 3 -8 -4 -16 -15 -19 -28 -7 -28 17 0 37 15 10 19 20 14 37 -7 21 -8 21
-32 -10 -28 -36 -43 -40 -43 -11 0 11 12 27 27 37 16 9 30 18 32 19 1 2 0 8
-4 14 -5 8 -21 -3 -47 -30 -22 -23 -43 -39 -46 -35 -4 3 -1 9 5 13 7 4 21 29
33 56 20 49 17 65 -15 66 -5 0 -5 4 1 10 7 7 21 7 42 -1 18 -6 44 -9 57 -7 18
4 25 0 27 -15 5 -33 29 -40 71 -22 l38 16 -18 25 c-17 24 -22 25 -106 22 -48
-2 -87 0 -87 5 0 8 24 9 233 8 75 0 137 3 137 7 0 4 -8 16 -16 27 -15 19 -15
19 -12 1 3 -18 -4 -20 -65 -23 -64 -3 -68 -2 -62 17 8 26 -6 26 -25 0 -15 -21
-40 -27 -40 -10 0 6 6 10 13 10 8 0 22 9 32 20 18 20 41 28 31 11 -3 -5 1 -12
10 -15 8 -3 12 -2 9 3 -3 6 2 14 12 19 14 8 15 13 5 25 -9 10 -10 17 -2 22 5
3 10 -1 10 -9 0 -9 8 -16 18 -17 10 0 12 -3 5 -6 -20 -8 14 -36 37 -30 13 3
27 -4 42 -24 15 -19 32 -29 48 -28 23 0 23 1 5 9 -15 7 -16 9 -4 9 19 1 32 38
18 47 -6 4 -6 10 0 18 8 9 -7 18 -62 35 -40 13 -79 26 -87 29 -13 5 -13 3 -2
-10 11 -13 11 -18 0 -24 -7 -4 -10 -4 -6 1 4 4 1 17 -7 29 -18 24 -19 36 -4
36 5 0 7 -4 4 -10 -3 -5 3 -11 14 -11 12 -1 27 -2 34 -3 6 -1 14 -3 17 -6 12
-14 125 -49 128 -40 5 15 22 12 22 -4 0 -8 44 -28 115 -52 78 -26 109 -41 97
-46 -15 -6 -15 -7 2 -7 11 -1 16 -4 13 -8 -4 -3 -25 -6 -47 -5 -37 2 -40 0
-30 -17 10 -19 44 -19 56 0 3 5 12 9 20 9 8 0 13 -4 10 -8 -3 -4 9 -13 25 -19
26 -10 31 -9 36 5 4 9 11 20 17 24 6 4 7 10 3 14 -4 4 -16 -1 -27 -11 -23 -21
-53 -13 -48 14 4 25 -88 121 -116 121 -41 0 -5 12 41 14 35 1 48 5 48 16 0 9
-10 15 -25 16 -14 0 -37 5 -51 11 -29 13 -72 66 -62 77 3 3 -1 6 -10 6 -9 0
-17 -3 -17 -6 0 -14 74 -94 87 -94 8 0 11 -5 7 -11 -4 -7 -21 3 -44 26 -25 24
-40 33 -45 25 -5 -8 -11 -8 -23 1 -13 10 -13 9 1 -7 14 -15 19 -16 26 -6 7 11
10 10 15 -3 9 -26 7 -42 -4 -25 -7 11 -10 8 -10 -16 0 -40 23 -62 45 -44 13
11 20 11 40 0 23 -12 40 -38 31 -47 -9 -9 -141 39 -163 59 -12 11 -26 17 -32
14 -6 -4 -28 -2 -49 5 l-39 11 21 22 c14 15 25 19 34 13 8 -6 17 -5 27 3 14
12 13 15 -5 35 -28 29 -25 35 15 35 24 0 35 -5 35 -15 0 -8 7 -15 15 -15 13 0
13 3 3 20 -11 17 -22 20 -69 18 -42 -2 -55 -6 -52 -15 3 -7 9 -13 14 -13 14 0
10 -17 -5 -23 -10 -4 -13 -1 -9 9 8 22 -7 17 -34 -12 -14 -15 -30 -23 -39 -20
-8 3 -12 2 -9 -4 3 -6 -1 -10 -9 -10 -19 0 -31 20 -27 45 2 16 0 18 -10 8 -7
-7 -17 -13 -23 -13 -5 0 -1 6 9 14 11 8 24 12 30 10 5 -2 24 0 40 5 21 7 24
10 10 10 -18 2 -19 2 -2 12 9 5 22 7 29 3 7 -5 8 -3 4 5 -5 7 -15 10 -23 6
-13 -4 -14 -3 -4 9 10 12 8 21 -10 45 -12 17 -20 33 -17 37 4 3 14 -9 23 -27
13 -25 19 -29 27 -18 7 10 8 8 3 -7 -3 -13 0 -26 9 -33 17 -14 97 -11 95 4 -1
14 -172 203 -183 204 -5 1 -17 7 -25 14 -13 11 -430 127 -455 127 -17 0 -3
-19 17 -22 14 -2 22 -10 22 -23 0 -11 9 -29 20 -41 11 -11 26 -29 33 -40 11
-17 11 -17 2 3 -12 26 -13 36 -2 29 5 -3 6 9 4 25 -5 34 -14 34 128 -3 41 -11
98 -25 125 -32 28 -6 50 -17 50 -23 0 -10 -97 -83 -110 -83 -3 0 0 9 7 20 10
16 10 22 -3 36 -15 14 -19 13 -45 -10 -22 -20 -24 -24 -9 -19 11 3 25 10 32
15 7 5 14 5 18 -2 3 -5 5 -10 3 -11 -2 0 -11 -2 -21 -4 -25 -5 -34 -15 -14
-15 31 0 27 -18 -9 -39 -19 -12 -42 -21 -50 -21 -16 0 -19 -16 -4 -25 17 -11
11 -31 -10 -32 -11 -1 -20 2 -20 8 0 5 5 9 11 9 6 0 8 7 5 15 -3 8 -9 23 -12
33 -5 14 -4 15 5 2 9 -13 11 -13 11 2 0 9 8 22 18 28 14 9 13 10 -8 5 -25 -6
-25 -6 -5 11 19 16 19 16 1 10 -12 -4 -26 0 -38 11 -18 16 -19 16 -12 -3 4
-10 4 -16 -1 -12 -4 4 -13 1 -19 -6 -6 -8 -25 -17 -42 -20 -34 -8 -31 -12 -89
138 -20 54 -23 71 -13 77 18 11 4 22 -29 21 -37 0 -46 7 -32 24 15 18 -1 17
-56 -3z m15 -22 c-50 -15 -94 -21 -85 -12 11 10 46 18 85 19 l25 0 -25 -7z
m121 -145 c31 -90 49 -128 63 -132 13 -4 15 -8 7 -14 -17 -10 -3 -58 20 -71
11 -5 19 -16 19 -25 0 -25 -28 -27 -56 -5 -32 25 -64 30 -44 6 7 -8 17 -12 23
-8 6 3 7 1 3 -6 -4 -6 2 -27 14 -46 24 -38 33 -45 23 -17 -5 13 -3 14 7 5 7
-6 19 -9 27 -6 10 4 14 0 12 -13 -2 -10 1 -26 5 -34 6 -9 1 -7 -12 4 -12 11
-25 17 -28 14 -7 -7 18 -48 28 -48 5 0 8 -4 8 -10 0 -5 -9 -10 -19 -10 -29 0
-35 -17 -11 -30 13 -7 20 -7 20 0 0 5 5 10 12 10 9 0 9 -3 0 -12 -8 -8 -9 -15
-1 -25 15 -17 34 -16 64 3 20 13 22 19 13 34 -7 10 -16 16 -20 14 -4 -3 -8 1
-8 9 0 10 7 13 20 10 10 -3 19 -8 18 -12 -2 -17 3 -31 12 -31 5 0 7 8 4 18 -4
12 -3 13 3 4 8 -10 14 -9 33 6 16 13 20 21 12 26 -7 4 -12 3 -12 -2 0 -5 -11
-7 -25 -4 -14 2 -25 10 -25 17 0 7 -6 15 -12 18 -18 6 -39 -3 -32 -14 3 -5 0
-9 -7 -9 -7 0 -9 9 -5 23 3 12 6 35 6 50 0 26 2 28 32 23 18 -3 34 -10 36 -16
2 -5 8 -8 13 -5 5 4 6 -1 3 -9 -3 -9 3 -20 15 -28 12 -7 21 -21 21 -30 0 -18
11 -24 23 -12 9 10 -15 54 -30 54 -10 0 -12 6 -8 19 7 23 -26 46 -54 38 -10
-2 -26 2 -36 9 -31 23 -38 16 -33 -36 7 -66 -7 -65 -16 1 -6 42 -4 53 10 64
12 8 14 14 6 19 -7 4 -16 5 -21 2 -10 -6 -31 45 -31 75 0 11 -4 19 -10 19 -5
0 -10 4 -10 9 0 5 18 11 40 15 22 3 40 11 40 16 0 6 5 10 10 10 6 0 8 -10 5
-22 -3 -13 -6 -39 -8 -58 -2 -20 -7 -42 -11 -49 -7 -10 -1 -12 25 -7 31 6 32
6 12 -6 -25 -15 -30 -31 -11 -34 7 -2 28 -7 46 -13 17 -5 32 -8 32 -5 0 8 -25
49 -35 56 -5 4 -6 10 -2 14 4 4 14 -2 23 -14 15 -22 44 -30 44 -12 0 5 -7 7
-15 4 -8 -4 -15 -2 -15 4 0 10 43 21 94 23 23 1 25 3 9 6 -13 2 -23 12 -23 21
0 12 3 13 12 4 7 -7 27 -12 45 -12 20 0 33 -5 33 -12 1 -35 20 27 23 71 1 28
6 51 11 51 4 0 6 6 3 14 -3 8 0 19 7 25 10 9 12 6 9 -13 -3 -13 0 -27 6 -30 7
-5 11 2 11 16 0 19 16 8 88 -67 85 -88 86 -90 59 -93 -40 -5 -60 5 -53 24 8
20 -11 45 -27 38 -7 -2 -22 12 -35 32 -13 20 -26 33 -29 30 -4 -3 -11 -2 -18
4 -8 7 -14 -6 -21 -48 l-9 -58 29 4 c28 5 29 5 9 21 -15 12 -19 21 -13 36 5
11 9 14 9 7 1 -7 5 -11 11 -7 5 3 6 13 3 23 -4 10 -2 13 3 9 5 -5 9 -25 10
-45 0 -20 5 -46 9 -57 6 -16 5 -18 -5 -8 -10 9 -21 1 -52 -35 -23 -25 -35 -48
-29 -50 17 -6 13 -42 -5 -49 -10 -4 -22 0 -29 10 -6 9 -31 21 -56 26 -58 14
-59 14 -58 -6 0 -11 3 -13 6 -6 3 8 14 11 31 7 42 -10 48 -22 19 -35 -21 -9
-24 -15 -16 -26 9 -10 8 -13 -2 -13 -11 0 -11 -2 1 -10 8 -5 11 -12 7 -17 -5
-4 -12 -1 -17 7 -6 8 -10 12 -10 8 0 -18 -2 -24 -12 -36 -6 -7 -17 -11 -25 -8
-17 7 -90 -43 -96 -66 -3 -10 -14 -18 -25 -18 -12 0 -24 -4 -27 -10 -3 -5 -12
-10 -18 -10 -7 1 -2 9 11 19 12 11 22 22 22 25 0 4 -16 21 -36 38 -40 35 -89
46 -73 16 5 -9 18 -20 29 -23 11 -3 20 -10 20 -15 0 -14 -33 1 -50 23 -10 11
-22 16 -33 12 -14 -6 -17 -21 -17 -91 0 -54 4 -84 11 -84 6 0 13 9 16 19 3 11
11 17 18 15 7 -3 16 0 20 5 3 6 12 8 18 5 7 -4 9 -4 5 1 -4 4 -3 13 2 20 5 6
12 22 14 36 3 13 5 25 5 27 1 2 6 0 11 -3 8 -5 8 -11 0 -20 -6 -7 -10 -17 -9
-21 1 -5 -3 -22 -10 -38 -6 -16 -9 -31 -6 -34 3 -3 5 -1 5 5 0 5 11 22 24 37
35 42 103 29 76 -14 -7 -12 -12 -12 -22 -2 -18 18 -27 15 -39 -14 -7 -21 -6
-31 6 -44 19 -21 19 -49 0 -56 -8 -3 -17 -14 -20 -25 -9 -28 -49 -6 -42 23 7
23 -2 50 -13 43 -9 -6 -23 25 -15 33 3 3 5 -1 6 -9 1 -16 17 19 18 39 1 20
-49 -18 -60 -46 -5 -13 -15 -22 -22 -19 -6 2 -29 -9 -50 -26 -21 -16 -40 -27
-43 -24 -3 3 13 18 35 33 22 16 43 40 46 54 7 32 4 239 -4 237 -3 0 -16 2 -28
7 -28 9 -31 30 -3 21 14 -4 22 -1 26 10 9 21 -5 33 -16 15 -8 -12 -10 -11 -10
6 0 13 -26 44 -70 83 -69 62 -80 87 -34 78 13 -2 24 0 24 4 0 5 5 9 11 9 6 0
9 -6 6 -14 -4 -9 1 -15 11 -15 51 -1 73 -4 78 -12 3 -5 12 -9 21 -9 15 0 14 2
0 18 -18 20 -22 32 -9 32 4 0 13 -13 20 -29 9 -20 22 -31 43 -35 42 -8 50 -1
37 34 -12 37 -23 44 -45 30 -17 -10 -16 -10 2 -8 12 2 21 -4 23 -14 2 -13 -3
-18 -17 -18 -12 0 -21 6 -21 15 0 8 -6 15 -12 15 -7 1 2 9 20 18 18 10 31 20
28 23 -9 9 -95 260 -88 255 5 -3 28 -61 53 -130z m-47 57 c10 -27 29 -78 43
-116 27 -68 26 -90 -2 -67 -9 7 -18 10 -22 7 -3 -4 -12 -2 -20 4 -19 17 -41
-5 -36 -35 4 -19 1 -24 -12 -22 -10 1 -22 10 -27 19 -5 10 -13 15 -18 12 -5
-3 -16 8 -25 24 -19 37 -19 47 -1 32 11 -9 12 -7 9 12 -3 17 2 28 21 40 13 9
24 25 23 36 -1 21 32 101 43 101 4 0 15 -21 24 -47z m135 -7 c1 -6 -5 -1 -13
9 -8 11 -12 24 -8 29 5 9 20 -17 21 -38z m357 -73 c-10 -10 -19 5 -10 18 6 11
8 11 12 0 2 -7 1 -15 -2 -18z m-26 2 c0 -9 -201 -137 -206 -132 -4 4 194 136
204 137 1 0 2 -2 2 -5z m15 -75 c-2 -28 -6 -54 -10 -59 -6 -10 -39 -8 -68 4
-10 4 -28 3 -40 -3 -33 -17 -59 -18 -64 -4 -3 6 -1 12 4 12 4 0 42 22 83 50
41 27 80 50 87 50 8 0 10 -16 8 -50z m2048 6 c3 -8 29 -46 56 -84 28 -39 51
-73 51 -78 0 -4 -3 -4 -7 -1 -3 4 -12 2 -19 -4 -8 -7 -14 -7 -19 1 -3 5 -2 10
2 10 14 0 13 41 -1 46 -8 3 -112 -4 -232 -15 -121 -12 -234 -22 -251 -24 -18
-2 -33 0 -33 3 0 4 87 14 193 24 257 23 277 26 277 42 0 8 -7 11 -17 8 -12 -4
-14 -3 -6 3 12 9 6 63 -8 63 -5 0 -9 5 -9 10 0 15 17 12 23 -4z m-2655 -56
c-2 -5 -9 -6 -16 -1 -7 4 -10 15 -6 25 6 17 8 17 16 2 5 -9 8 -21 6 -26z m122
10 c0 -5 -4 -10 -10 -10 -5 0 -10 5 -10 10 0 6 5 10 10 10 6 0 10 -4 10 -10z
m2690 -20 c0 -5 -4 -10 -10 -10 -5 0 -10 5 -10 10 0 6 5 10 10 10 6 0 10 -4
10 -10z m-2385 -20 c3 -5 20 -7 38 -5 l32 5 -33 -10 c-26 -9 -37 -7 -55 5 -17
12 -18 15 -5 15 9 0 20 -4 23 -10z m2450 -1 c-16 -5 -46 -10 -65 -11 -19 -1
-41 -6 -49 -12 -11 -8 -13 -8 -7 2 4 7 1 12 -9 12 -9 0 -14 3 -11 8 2 4 42 8
88 9 62 1 76 -1 53 -8z m-171 -74 c-3 -6 -17 -19 -33 -28 -27 -16 -28 -16 -40
9 -13 30 -14 34 -2 34 5 0 11 -9 14 -21 5 -17 9 -19 25 -10 14 8 18 18 15 38
-5 27 -5 27 10 8 8 -10 13 -24 11 -30z m16 35 c0 -5 -4 -10 -10 -10 -5 0 -10
5 -10 10 0 6 5 10 10 10 6 0 10 -4 10 -10z m-533 -17 c3 -10 52 -51 110 -92
57 -40 102 -75 100 -78 -3 -2 -52 30 -110 71 -58 42 -113 76 -123 76 -34 0
-284 -114 -285 -130 0 -9 -3 -10 -5 -4 -3 7 -15 9 -27 6 -42 -10 -11 6 143 73
85 37 159 74 163 81 11 19 28 17 34 -3z m423 2 c-10 -13 -10 -19 2 -33 9 -9
13 -23 10 -31 -3 -10 0 -11 9 -5 11 6 12 5 2 -8 -7 -8 -9 -19 -5 -23 4 -5 2
-5 -5 -1 -7 4 -18 -2 -25 -14 -13 -21 -38 -28 -38 -10 0 6 6 10 13 10 8 0 22
9 32 20 22 24 10 25 -30 1 -16 -10 -29 -26 -29 -35 2 -13 -1 -14 -13 -5 -11
10 -18 9 -31 -5 -16 -16 -16 -18 1 -30 16 -13 15 -14 -10 -19 -42 -8 -63 8
-58 43 3 26 0 30 -20 30 -13 0 -27 -5 -30 -10 -6 -10 -155 87 -155 100 0 4 69
13 153 19 83 7 154 15 156 17 2 2 22 4 44 4 34 0 38 -2 27 -15z m-2225 -5 c3
-5 -1 -10 -9 -10 -9 0 -16 5 -16 10 0 6 4 10 9 10 6 0 13 -4 16 -10z m289 -11
c-3 -5 -10 -7 -15 -3 -5 3 -7 10 -3 15 3 5 10 7 15 3 5 -3 7 -10 3 -15z m2043
-45 c15 -14 14 -18 -8 -37 -24 -21 -64 -47 -73 -47 -8 0 0 30 11 41 6 6 9 18
6 25 -3 8 -1 14 4 14 21 0 22 -15 1 -37 -28 -30 -16 -29 30 2 35 24 36 26 15
31 -13 4 -20 10 -17 15 7 13 13 11 31 -7z m-1897 -4 c0 -5 -4 -10 -10 -10 -5
0 -10 5 -10 10 0 6 5 10 10 10 6 0 10 -4 10 -10z m-60 -21 c0 -5 -8 -9 -17 -7
-10 2 -17 -3 -15 -9 1 -7 -2 -13 -8 -13 -14 0 -12 11 6 31 16 18 34 17 34 -2z
m-219 -38 c-13 -10 -21 -23 -17 -30 4 -6 3 -11 -2 -11 -21 0 -20 30 1 45 31
21 47 18 18 -4z m509 9 c0 -5 -4 -10 -10 -10 -5 0 -10 5 -10 10 0 6 5 10 10
10 6 0 10 -4 10 -10z m706 -7 c21 -28 16 -39 -6 -15 -11 12 -20 24 -20 27 0
11 13 4 26 -12z m1124 -3 c14 -11 21 -20 15 -20 -5 0 -21 9 -35 20 -14 11 -20
20 -15 20 6 0 21 -9 35 -20z m-1935 -9 c3 -5 1 -12 -5 -16 -5 -3 -10 1 -10 9
0 18 6 21 15 7z m1475 -6 c0 -8 -4 -15 -10 -15 -5 0 -10 7 -10 15 0 8 5 15 10
15 6 0 10 -7 10 -15z m195 6 c-3 -5 4 -12 15 -16 20 -7 28 -25 10 -25 -5 0
-10 4 -10 10 0 5 -6 7 -13 4 -7 -2 -13 4 -14 16 -1 11 3 20 8 20 6 0 8 -4 4
-9z m-2020 -22 c-5 -14 -3 -19 3 -15 6 3 13 2 16 -3 9 -13 -14 -17 -59 -11
-29 4 -35 7 -22 12 9 4 17 14 17 23 0 9 9 15 26 15 21 0 24 -3 19 -21z m90 11
c3 -5 1 -10 -4 -10 -6 0 -11 5 -11 10 0 6 2 10 4 10 3 0 8 -4 11 -10z m-315
-10 c0 -5 -4 -10 -10 -10 -5 0 -10 5 -10 10 0 6 5 10 10 10 6 0 10 -4 10 -10z
m990 0 c0 -5 -4 -10 -10 -10 -5 0 -10 5 -10 10 0 6 5 10 10 10 6 0 10 -4 10
-10z m1170 6 c0 -3 -4 -8 -10 -11 -5 -3 -10 -1 -10 4 0 6 5 11 10 11 6 0 10
-2 10 -4z m-1775 -16 c4 -6 -5 -10 -19 -10 -14 0 -26 5 -26 10 0 6 9 10 19 10
11 0 23 -4 26 -10z m-429 -38 c-4 -3 -11 0 -16 8 -15 24 -11 33 6 15 9 -9 13
-19 10 -23z m764 28 c0 -5 -4 -10 -10 -10 -5 0 -10 5 -10 10 0 6 5 10 10 10 6
0 10 -4 10 -10z m1030 0 c0 -5 -4 -10 -10 -10 -5 0 -10 5 -10 10 0 6 5 10 10
10 6 0 10 -4 10 -10z m610 0 c0 -5 -4 -10 -10 -10 -5 0 -10 5 -10 10 0 6 5 10
10 10 6 0 10 -4 10 -10z m112 -15 c28 -26 28 -38 0 -82 -8 -13 -18 -20 -23
-17 -13 8 -11 58 4 73 10 10 9 14 -5 22 -18 10 -25 29 -10 29 4 0 19 -11 34
-25z m-2142 5 c0 -5 -7 -10 -15 -10 -8 0 -15 5 -15 10 0 6 7 10 15 10 8 0 15
-4 15 -10z m1931 -16 c2 3 5 -7 5 -21 2 -23 1 -23 -10 -6 -7 10 -16 27 -19 38
-7 18 -6 19 6 3 8 -10 16 -16 18 -14z m-1863 9 c-10 -2 -28 -2 -40 0 -13 2 -5
4 17 4 22 1 32 -1 23 -4z m-223 -13 c-3 -5 -15 -10 -26 -10 -10 0 -18 -5 -16
-11 1 -6 -4 -14 -12 -17 -8 -3 -11 0 -7 7 5 7 1 9 -8 5 -21 -8 -20 6 0 20 20
15 78 20 69 6z m1219 -30 c-15 -22 -29 -38 -32 -35 -5 5 45 75 54 75 2 0 -8
-18 -22 -40z m911 30 c3 -5 1 -10 -4 -10 -6 0 -11 5 -11 10 0 6 2 10 4 10 3 0
8 -4 11 -10z m-2315 -9 c0 -5 -7 -11 -15 -15 -15 -5 -20 5 -8 17 9 10 23 9 23
-2z m-395 -11 c3 -5 1 -10 -4 -10 -6 0 -11 5 -11 10 0 6 2 10 4 10 3 0 8 -4
11 -10z m1195 6 c0 -11 -19 -15 -25 -6 -3 5 1 10 9 10 9 0 16 -2 16 -4z m-740
-21 c-7 -8 -18 -15 -24 -15 -6 0 -2 7 8 15 25 19 32 19 16 0z m1381 -8 c-13
-13 -26 -3 -16 12 3 6 11 8 17 5 6 -4 6 -10 -1 -17z m-1617 -33 c-4 -15 0 -25
12 -32 22 -12 11 -29 -20 -29 -23 0 -25 3 -22 41 3 51 14 75 27 55 4 -8 6 -24
3 -35z m1956 36 c0 -5 -4 -10 -10 -10 -5 0 -10 5 -10 10 0 6 5 10 10 10 6 0
10 -4 10 -10z m150 -10 c0 -5 -2 -10 -4 -10 -3 0 -8 5 -11 10 -3 6 -1 10 4 10
6 0 11 -4 11 -10z m30 0 c0 -5 -5 -10 -11 -10 -5 0 -7 5 -4 10 3 6 8 10 11 10
2 0 4 -4 4 -10z m446 -2 c4 -7 3 -8 -4 -4 -11 6 -16 -5 -14 -26 2 -12 -27 -30
-38 -23 -7 4 -3 17 10 36 23 31 35 36 46 17z m-506 -8 c0 -5 -2 -10 -4 -10 -3
0 -8 5 -11 10 -3 6 -1 10 4 10 6 0 11 -4 11 -10z m-2033 -26 c-3 -3 -12 -4
-19 -1 -8 3 -5 6 6 6 11 1 17 -2 13 -5z m303 -4 c18 -11 5 -27 -25 -32 -14 -2
-21 3 -23 20 -4 24 20 30 48 12z m1670 -30 c0 -5 -4 -10 -10 -10 -5 0 -10 5
-10 10 0 6 5 10 10 10 6 0 10 -4 10 -10z m-2090 -15 c5 3 10 2 10 -3 0 -17
-12 -21 -37 -11 -38 14 -40 3 -3 -16 18 -9 30 -19 27 -21 -2 -3 -21 5 -42 17
l-37 22 23 13 c16 8 28 9 36 2 7 -5 17 -7 23 -3z m2324 -10 c5 -19 13 -25 34
-26 l27 -1 -25 -8 c-23 -7 -23 -8 -3 -9 25 -1 63 -45 63 -72 0 -19 -33 -43
-44 -32 -3 3 -6 1 -6 -7 0 -9 9 -11 32 -6 49 10 22 -8 -30 -20 -27 -6 -46 -15
-44 -22 3 -17 -9 -14 -35 7 -24 20 -30 41 -13 41 6 0 10 -7 10 -16 0 -12 6
-15 23 -10 12 3 31 6 42 7 11 0 14 3 7 6 -6 2 -9 10 -6 16 5 8 2 8 -7 0 -18
-17 -37 -16 -56 3 -10 10 -19 12 -26 5 -19 -19 -32 0 -32 45 1 28 6 49 15 54
11 7 12 10 2 10 -7 0 -10 5 -7 11 4 6 13 8 20 5 8 -3 16 0 19 7 5 9 7 9 12 0
3 -7 10 -13 16 -13 6 0 4 8 -5 18 -10 10 -14 22 -10 25 12 13 21 7 27 -18z
m-204 -42 c0 -7 7 -10 17 -6 11 4 14 3 9 -5 -4 -7 -11 -12 -16 -12 -9 0 -40
52 -40 66 0 13 29 -30 30 -43z m-650 33 c0 -3 -4 -8 -10 -11 -5 -3 -10 -1 -10
4 0 6 5 11 10 11 6 0 10 -2 10 -4z m-1270 -13 c0 -5 -5 -15 -10 -23 -7 -12 -9
-10 -7 8 1 19 17 33 17 15z m1225 -3 c3 -5 1 -10 -4 -10 -6 0 -11 5 -11 10 0
6 2 10 4 10 3 0 8 -4 11 -10z m1109 -56 c10 -27 7 -34 -18 -34 -31 0 -50 22
-34 38 17 17 45 15 52 -4z m-2230 -6 c-4 -7 -16 -23 -28 -36 -14 -15 -20 -34
-17 -53 2 -28 0 -30 -26 -27 -23 2 -28 0 -25 -17 2 -14 0 -16 -6 -7 -7 10 -13
6 -27 -15 -11 -17 -13 -23 -4 -16 11 9 21 5 46 -17 18 -16 28 -32 24 -35 -5
-3 -12 1 -14 7 -4 9 -6 8 -6 -2 -1 -9 4 -21 11 -28 9 -9 8 -15 -7 -26 -17 -13
-22 -11 -43 11 -13 14 -21 28 -18 30 3 3 -8 32 -25 64 -19 39 -35 59 -47 59
-9 -1 -65 -7 -124 -14 -60 -6 -108 -9 -108 -5 0 3 33 9 73 13 176 16 183 19
151 51 -9 9 -14 19 -11 22 4 3 17 -8 31 -24 19 -22 32 -29 58 -27 25 1 26 0 6
-3 -31 -5 -35 -15 -13 -33 13 -10 19 -10 35 5 11 10 20 27 20 37 0 10 8 22 17
25 9 4 30 22 46 40 30 34 44 43 31 21z m2287 -15 c12 -16 12 -17 -2 -6 -9 7
-20 9 -24 5 -5 -4 -5 -1 -1 6 9 16 11 15 27 -5z m59 7 c0 -5 -4 -10 -10 -10
-5 0 -10 5 -10 10 0 6 5 10 10 10 6 0 10 -4 10 -10z m-2614 -13 c9 3 14 -1 14
-14 0 -10 5 -24 12 -31 19 -19 3 -24 -79 -29 -76 -4 -77 -4 -58 14 57 51 90
74 93 65 2 -6 10 -8 18 -5z m44 3 c0 -5 -4 -10 -10 -10 -5 0 -10 5 -10 10 0 6
5 10 10 10 6 0 10 -4 10 -10z m1445 -10 c-3 -5 2 -11 12 -11 17 -1 17 -2 0 -6
-9 -2 -15 -9 -12 -14 3 -5 -1 -6 -10 -2 -13 5 -14 7 -3 14 7 5 9 9 5 9 -9 0 1
20 9 20 3 0 2 -4 -1 -10z m-1310 -10 c3 -5 1 -10 -4 -10 -6 0 -11 5 -11 10 0
6 2 10 4 10 3 0 8 -4 11 -10z m2579 -11 c-6 -11 -45 -12 -71 -2 -16 6 -15 8 7
13 31 8 72 1 64 -11z m-1304 -10 c9 -15 8 -24 -1 -35 -28 -33 -80 -3 -59 35 6
12 19 21 30 21 11 0 24 -9 30 -21z m988 -12 c2 -12 -3 -17 -17 -17 -15 0 -21
6 -21 21 0 25 33 22 38 -4z m-1114 -19 c-4 -6 1 -8 13 -4 13 4 28 -1 44 -15
18 -17 19 -20 6 -16 -10 4 -23 7 -28 7 -6 0 -7 5 -3 12 5 8 2 9 -12 4 -23 -10
-64 -19 -48 -11 7 3 10 15 7 26 -4 15 -2 18 11 13 9 -3 13 -11 10 -16z m1356
18 c0 -3 -4 -8 -10 -11 -5 -3 -10 -1 -10 4 0 6 5 11 10 11 6 0 10 -2 10 -4z
m-2400 -16 c0 -12 -8 -12 -35 0 -18 8 -17 9 8 9 15 1 27 -3 27 -9z m151 -8
c14 -12 18 -21 11 -26 -6 -3 -16 2 -22 13 -7 13 -16 18 -27 14 -11 -4 -14 -3
-9 5 10 16 20 15 47 -6z m2079 11 c0 -9 -49 -33 -64 -33 -16 1 34 40 50 40 8
0 14 -3 14 -7z m90 -13 c0 -5 -2 -10 -4 -10 -3 0 -8 5 -11 10 -3 6 -1 10 4 10
6 0 11 -4 11 -10z m-2534 -46 c13 -19 11 -24 -15 -51 -16 -17 -32 -29 -35 -25
-3 3 -14 -2 -23 -11 -17 -14 -23 -12 -80 29 -35 25 -63 48 -63 53 0 4 15 8 32
9 18 2 58 7 88 11 72 11 80 10 96 -15z m329 16 c3 -6 -1 -7 -9 -4 -18 7 -21
14 -7 14 6 0 13 -4 16 -10z m515 -5 c0 -8 -4 -15 -10 -15 -5 0 -10 7 -10 15 0
8 5 15 10 15 6 0 10 -7 10 -15z m1740 11 c0 -3 -4 -8 -10 -11 -5 -3 -10 -1
-10 4 0 6 5 11 10 11 6 0 10 -2 10 -4z m-330 -26 c-19 -13 -30 -13 -30 0 0 6
10 10 23 10 18 0 19 -2 7 -10z m-52 -7 c-10 -2 -28 -2 -40 0 -13 2 -5 4 17 4
22 1 32 -1 23 -4z m-2018 -23 c0 -5 -4 -10 -10 -10 -5 0 -10 5 -10 10 0 6 5
10 10 10 6 0 10 -4 10 -10z m1155 -1 c11 -17 0 -20 -21 -4 -17 13 -17 14 -2
15 9 0 20 -5 23 -11z m-1339 -46 c-21 -21 -42 -48 -47 -61 -10 -26 -32 -25
-37 1 -2 12 3 17 17 17 15 0 19 4 14 17 -4 9 -2 14 3 10 5 -3 25 10 43 29 19
19 36 32 39 29 3 -2 -12 -21 -32 -42z m2104 32 c0 -8 -4 -15 -10 -15 -5 0 -10
7 -10 15 0 8 5 15 10 15 6 0 10 -7 10 -15z m-2249 -31 c27 -20 49 -38 49 -40
0 -7 -50 23 -85 52 -47 37 -18 28 36 -12z m2829 26 c0 -5 -4 -10 -10 -10 -5 0
-10 5 -10 10 0 6 5 10 10 10 6 0 10 -4 10 -10z m-1540 -14 c0 -2 -16 -14 -36
-25 l-36 -22 27 -34 c20 -27 22 -35 11 -35 -9 0 -16 6 -16 13 0 6 -7 20 -15
31 -15 20 -4 25 -145 -62 -20 -12 -22 -13 -12 -1 15 16 203 138 215 138 4 1 7
-1 7 -3z m350 -6 c0 -5 -4 -10 -10 -10 -5 0 -10 5 -10 10 0 6 5 10 10 10 6 0
10 -4 10 -10z m370 0 c0 -5 -4 -10 -10 -10 -5 0 -10 5 -10 10 0 6 5 10 10 10
6 0 10 -4 10 -10z m-265 -20 c3 -5 1 -10 -4 -10 -6 0 -11 5 -11 10 0 6 2 10 4
10 3 0 8 -4 11 -10z m-1565 -4 c0 -3 -4 -8 -10 -11 -5 -3 -10 -1 -10 4 0 6 5
11 10 11 6 0 10 -2 10 -4z m1085 -16 c3 -5 1 -10 -4 -10 -6 0 -11 5 -11 10 0
6 2 10 4 10 3 0 8 -4 11 -10z m685 -10 c0 -5 -4 -10 -10 -10 -5 0 -10 5 -10
10 0 6 5 10 10 10 6 0 10 -4 10 -10z m-1580 -10 c0 -5 -4 -10 -10 -10 -5 0
-10 5 -10 10 0 6 5 10 10 10 6 0 10 -4 10 -10z m1920 0 c0 -5 -5 -10 -11 -10
-5 0 -7 5 -4 10 3 6 8 10 11 10 2 0 4 -4 4 -10z m158 -30 c-12 -19 -28 -27
-28 -14 0 6 30 33 38 34 1 0 -3 -9 -10 -20z m232 10 c0 -5 -4 -10 -10 -10 -5
0 -10 5 -10 10 0 6 5 10 10 10 6 0 10 -4 10 -10z m-2371 -43 c-1 -12 1 -29 4
-37 13 -36 17 -70 7 -70 -5 0 -10 8 -10 18 0 10 -6 26 -13 37 -7 11 -18 31
-24 45 -10 24 -8 26 14 28 20 2 24 -2 22 -21z m2461 13 c0 -5 -4 -10 -10 -10
-5 0 -10 5 -10 10 0 6 5 10 10 10 6 0 10 -4 10 -10z m-101 -4 c-2 -2 -15 -9
-29 -15 -24 -11 -24 -11 -6 3 16 13 49 24 35 12z m124 -77 c32 -44 56 -83 54
-86 -3 -3 -16 11 -29 31 -13 20 -28 36 -34 36 -7 0 -35 -15 -63 -34 -28 -19
-51 -33 -51 -30 0 11 6 19 13 16 4 -1 7 1 7 6 0 4 17 16 38 27 52 28 54 35 21
72 -30 35 -34 43 -21 43 4 0 33 -37 65 -81z m-1745 33 c3 -16 -2 -22 -17 -22
-24 0 -35 15 -27 36 9 23 40 13 44 -14z m102 18 c0 -5 -4 -10 -10 -10 -5 0
-10 5 -10 10 0 6 5 10 10 10 6 0 10 -4 10 -10z m1460 0 c0 -5 -4 -10 -10 -10
-5 0 -10 5 -10 10 0 6 5 10 10 10 6 0 10 -4 10 -10z m-84 -177 c-3 -4 -7 -4
-9 -2 -2 2 -16 22 -32 44 l-28 40 38 -38 c20 -21 35 -41 31 -44z"/>
<path d="M84 1049 c33 -30 65 -53 72 -51 6 1 14 -7 17 -18 3 -11 17 -24 32
-30 28 -11 30 -35 2 -35 -8 0 -19 -4 -23 -8 -4 -4 0 -7 9 -7 8 0 23 -3 33 -7
13 -5 15 -3 9 8 -7 11 -3 10 16 -2 13 -9 39 -20 58 -24 l33 -7 -18 32 c-13 22
-20 27 -22 16 -6 -30 -45 -13 -54 24 -4 21 -26 42 -37 36 -5 -3 -14 1 -21 9
-10 12 -8 17 11 25 21 9 22 10 3 7 -11 -1 -29 5 -39 13 -17 14 -18 13 -12 -4
6 -15 5 -17 -7 -7 -8 6 -17 23 -20 37 -4 14 -11 22 -17 18 -6 -4 -14 -2 -18 4
-3 6 -20 14 -36 17 -27 7 -24 2 29 -46z"/>
<path d="M355 1080 c-3 -5 -2 -10 4 -10 5 0 13 5 16 10 3 6 2 10 -4 10 -5 0
-13 -4 -16 -10z"/>
<path d="M133 1066 c4 -10 7 -20 7 -22 0 -3 9 0 20 6 15 8 20 8 20 -1 0 -6 6
-9 14 -6 8 3 20 -1 26 -9 18 -21 32 -17 18 5 -6 10 -25 21 -42 24 -17 3 -40 9
-50 13 -16 6 -18 4 -13 -10z"/>
<path d="M593 1054 c0 -9 4 -11 12 -4 12 10 22 3 40 -30 5 -9 -1 -7 -16 5 -17
14 -20 15 -10 3 17 -23 4 -41 -25 -35 -13 2 -24 1 -24 -3 0 -13 54 -19 72 -9
21 12 24 52 4 68 -22 18 -53 21 -53 5z"/>
<path d="M240 1001 c0 -14 49 -68 50 -54 0 6 -7 18 -15 27 -9 8 -15 19 -15 23
1 4 -3 9 -9 11 -6 2 -11 -1 -11 -7z"/>
<path d="M515 1000 c24 -11 51 -13 41 -3 -4 4 -19 8 -34 10 -23 2 -24 1 -7 -7z"/>
<path d="M200 990 c0 -5 7 -7 15 -4 8 4 15 8 15 10 0 2 -7 4 -15 4 -8 0 -15
-4 -15 -10z"/>
<path d="M235 870 c3 -5 13 -10 21 -10 8 0 12 5 9 10 -3 6 -13 10 -21 10 -8 0
-12 -4 -9 -10z"/>
<path d="M210 850 c0 -19 3 -21 12 -12 9 9 9 15 0 24 -9 9 -12 7 -12 -12z"/>
<path d="M510 849 c0 -5 5 -7 10 -4 6 3 10 8 10 11 0 2 -4 4 -10 4 -5 0 -10
-5 -10 -11z"/>
<path d="M2463 653 c9 -2 23 -2 30 0 6 3 -1 5 -18 5 -16 0 -22 -2 -12 -5z"/>
<path d="M2516 595 c4 -10 1 -21 -7 -26 -11 -7 -11 -9 2 -9 23 0 31 26 13 41
-12 10 -13 9 -8 -6z"/>
<path d="M190 1447 c18 -16 484 -141 518 -139 14 1 25 -5 30 -17 9 -24 163
-194 169 -187 3 3 -29 42 -71 87 -42 45 -76 90 -76 99 0 26 -23 40 -61 38 -41
-2 -49 0 -214 46 -72 20 -140 38 -150 40 -52 10 -105 27 -110 36 -3 6 -16 10
-28 10 -18 0 -19 -2 -7 -13z"/>
<path d="M2720 1276 c-10 -13 -10 -19 0 -32 12 -14 15 -14 29 0 14 15 14 17 0
32 -14 14 -17 14 -29 0z m30 -16 c0 -5 -4 -10 -10 -10 -5 0 -10 5 -10 10 0 6
5 10 10 10 6 0 10 -4 10 -10z"/>
<path d="M2860 1275 c-11 -13 -11 -19 2 -32 17 -16 38 -10 38 11 0 8 -6 19
-14 25 -10 9 -16 8 -26 -4z m25 -15 c3 -5 1 -10 -4 -10 -6 0 -11 5 -11 10 0 6
2 10 4 10 3 0 8 -4 11 -10z"/>
<path d="M350 1251 c0 -6 4 -13 10 -16 6 -3 7 1 4 9 -7 18 -14 21 -14 7z"/>
<path d="M2788 1226 c-4 -20 -1 -24 15 -20 26 5 31 10 24 29 -10 23 -34 18
-39 -9z m32 4 c0 -5 -4 -10 -10 -10 -5 0 -10 5 -10 10 0 6 5 10 10 10 6 0 10
-4 10 -10z"/>
<path d="M894 1186 c-3 -8 2 -26 11 -40 10 -14 14 -33 10 -45 -3 -10 -1 -22 5
-26 6 -3 8 -10 6 -14 -3 -4 1 -8 9 -8 18 0 18 -4 0 47 -18 50 -18 53 -6 46 14
-9 23 25 10 40 -15 18 -38 18 -45 0z m36 -16 c0 -5 -4 -10 -10 -10 -5 0 -10 5
-10 10 0 6 5 10 10 10 6 0 10 -4 10 -10z"/>
<path d="M1207 1126 c-7 -17 18 -40 33 -31 15 9 12 32 -6 39 -21 8 -21 8 -27
-8z"/>
<path d="M945 1117 c3 -11 8 -30 11 -43 4 -17 13 -24 28 -23 16 1 17 2 4 6
-10 2 -18 8 -18 13 0 4 8 6 19 3 23 -6 35 21 16 37 -17 14 -35 5 -35 -18 -1
-10 -7 -5 -16 13 -8 17 -12 22 -9 12z"/>
<path d="M1335 1100 c-4 -6 -1 -18 6 -26 12 -14 14 -14 26 2 7 9 10 21 7 25
-7 12 -31 11 -39 -1z m25 -10 c0 -5 -4 -10 -10 -10 -5 0 -10 5 -10 10 0 6 5
10 10 10 6 0 10 -4 10 -10z"/>
<path d="M1445 1090 c-3 -5 1 -10 9 -10 9 0 16 -4 16 -10 0 -5 -7 -6 -17 -3
-11 4 -14 3 -9 -5 10 -16 33 -15 39 2 9 24 -25 47 -38 26z"/>
<path d="M1085 1070 c-3 -5 3 -10 14 -10 12 0 21 -5 21 -11 0 -6 -8 -8 -19 -4
-23 7 -37 -21 -20 -41 13 -16 32 -5 50 28 17 31 -28 68 -46 38z"/>
<path d="M1587 1056 c-7 -18 1 -26 25 -26 13 0 18 6 16 17 -4 22 -34 29 -41 9z
m33 -6 c0 -5 -4 -10 -10 -10 -5 0 -10 5 -10 10 0 6 5 10 10 10 6 0 10 -4 10
-10z"/>
<path d="M1145 1030 c-4 -6 -1 -17 5 -26 15 -18 42 0 33 22 -6 16 -29 19 -38
4z m25 -10 c0 -5 -5 -10 -11 -10 -5 0 -7 5 -4 10 3 6 8 10 11 10 2 0 4 -4 4
-10z"/>
<path d="M50 1003 c0 -6 -11 -14 -24 -17 -22 -5 -25 -11 -24 -55 l1 -48 41 9
c49 11 65 23 19 15 -28 -6 -33 -4 -33 13 0 11 6 20 13 20 6 0 21 7 32 15 19
15 19 16 -3 37 -12 13 -22 17 -22 11z m20 -27 c0 -3 -4 -8 -10 -11 -5 -3 -10
-1 -10 4 0 6 5 11 10 11 6 0 10 -2 10 -4z m-40 -16 c0 -5 -4 -10 -10 -10 -5 0
-10 5 -10 10 0 6 5 10 10 10 6 0 10 -4 10 -10z"/>
<path d="M1893 994 c-9 -23 13 -40 32 -24 12 10 13 16 4 26 -15 18 -28 18 -36
-2z"/>
<path d="M1632 987 c-14 -17 2 -42 22 -34 20 8 20 21 2 36 -10 8 -16 8 -24 -2z
m28 -11 c0 -3 -4 -8 -10 -11 -5 -3 -10 -1 -10 4 0 6 5 11 10 11 6 0 10 -2 10
-4z"/>
<path d="M1461 976 c-8 -10 -7 -17 3 -26 17 -13 36 -6 36 15 0 19 -27 26 -39
11z m29 -10 c0 -3 -4 -8 -10 -11 -5 -3 -10 -1 -10 4 0 6 5 11 10 11 6 0 10 -2
10 -4z"/>
<path d="M1553 954 c-7 -20 17 -37 34 -23 15 13 6 39 -13 39 -8 0 -17 -7 -21
-16z m27 -4 c0 -5 -5 -10 -11 -10 -5 0 -7 5 -4 10 3 6 8 10 11 10 2 0 4 -4 4
-10z"/>
<path d="M1194 926 c-3 -9 -4 -23 0 -31 6 -17 26 -21 26 -5 0 6 -4 10 -10 10
-5 0 -10 5 -10 10 0 6 7 10 16 10 8 0 13 -4 10 -8 -2 -4 0 -14 5 -22 7 -11 9
-7 7 15 -3 33 -34 47 -44 21z"/>
<path d="M1280 915 c-10 -11 -10 -19 -2 -27 15 -15 42 -2 42 19 -1 17 -1 17
-14 0 -8 -10 -17 -14 -20 -8 -3 5 0 11 6 14 7 2 10 7 7 11 -3 4 -12 -1 -19 -9z"/>
<path d="M1095 890 c3 -5 8 -10 11 -10 2 0 4 5 4 10 0 6 -5 10 -11 10 -5 0 -7
-4 -4 -10z"/>
<path d="M886 860 c16 -16 125 -50 137 -43 6 4 -20 17 -58 30 -76 25 -95 29
-79 13z"/>
<path d="M1748 853 c-15 -2 -29 -12 -31 -21 -4 -15 -5 -15 -6 -1 -1 16 -31 17
-71 2 -8 -3 -28 -5 -45 -4 -25 1 -27 0 -12 -9 9 -6 22 -8 27 -5 6 3 10 0 10
-7 0 -8 5 -6 11 5 10 17 69 25 69 8 0 -9 -46 -31 -74 -35 -20 -3 -42 -23 -34
-32 3 -3 29 7 58 21 29 14 54 24 57 21 3 -3 -7 -10 -23 -16 -22 -9 -25 -13
-14 -20 8 -5 11 -12 7 -16 -3 -4 -13 -1 -21 5 -11 10 -20 10 -36 1 -31 -16
-46 0 -29 31 8 16 0 11 -23 -13 -19 -21 -45 -38 -56 -38 -11 0 -24 -5 -27 -10
-4 -7 -14 -6 -28 1 -21 10 -21 10 -3 -5 26 -21 33 -20 83 8 23 13 44 22 46 19
9 -8 -28 -40 -41 -35 -7 2 -20 -2 -30 -10 -9 -9 -29 -18 -43 -22 -15 -3 -29
-15 -32 -26 -7 -25 -44 -27 -52 -2 -3 11 -17 24 -31 31 -23 10 -26 10 -20 -4
3 -9 6 -19 6 -21 0 -3 4 -3 9 0 5 4 7 -3 4 -14 -6 -23 -25 -39 -22 -19 4 31
-3 43 -11 22 -5 -13 -14 -23 -19 -23 -5 0 -3 13 5 29 14 29 10 61 -8 61 -5 0
-6 5 -2 11 4 7 9 7 13 1 11 -17 76 -45 104 -45 44 2 47 2 47 14 0 6 -7 8 -16
5 -8 -3 -13 -2 -10 3 10 15 -19 19 -38 5 -17 -12 -23 -10 -55 15 -33 25 -37
26 -52 11 -14 -15 -15 -23 -3 -60 9 -25 9 -25 -71 -30 -37 -2 -42 -4 -20 -7
40 -6 137 -31 143 -38 9 -8 -20 -5 -82 10 -78 19 -122 -1 -80 -36 15 -12 16
-11 9 10 -5 17 -4 22 6 18 15 -5 15 -9 5 -43 -4 -14 -1 -28 9 -37 16 -17 19
-27 7 -27 -4 0 -16 16 -26 35 -24 45 -29 40 -12 -10 15 -43 29 -53 51 -35 8 6
19 9 25 5 5 -3 10 -1 10 4 0 6 -6 11 -14 11 -9 0 -12 7 -9 21 4 14 9 17 16 10
12 -12 50 -15 61 -4 4 4 17 8 29 8 12 1 35 2 51 3 l29 2 -27 25 c-15 14 -31
25 -37 25 -5 0 -9 5 -9 10 0 6 6 10 13 9 23 -4 97 13 92 21 -3 4 6 11 20 14
13 3 35 16 47 29 13 12 36 23 52 24 16 1 34 7 40 13 8 8 4 8 -16 1 -35 -13
-36 -7 -4 14 19 13 29 14 45 5 26 -13 77 -2 62 13 -16 16 -13 27 5 27 11 0 15
6 11 19 -4 15 7 24 52 45 55 25 50 30 -21 19z m-492 -262 c-3 -4 6 -6 21 -3
22 4 25 2 19 -13 -3 -10 -1 -24 5 -31 9 -11 7 -14 -11 -14 -13 0 -24 8 -27 20
-5 20 -23 28 -23 10 0 -5 -8 -10 -17 -10 -17 1 -17 1 0 14 9 7 17 18 17 25 0
6 5 11 11 11 5 0 8 -4 5 -9z m74 -25 c0 -3 -4 -8 -10 -11 -5 -3 -10 -1 -10 4
0 6 5 11 10 11 6 0 10 -2 10 -4z m41 -11 c0 -6 -10 -12 -23 -13 -19 -4 -20 -2
-9 12 15 17 33 18 32 1z"/>
<path d="M1988 823 c7 -3 16 -2 19 1 4 3 -2 6 -13 5 -11 0 -14 -3 -6 -6z"/>
<path d="M884 808 c-4 -7 -3 -8 4 -4 7 4 12 3 12 -3 0 -5 -6 -12 -12 -14 -7
-3 -3 -6 10 -6 20 -1 21 2 12 19 -12 23 -16 24 -26 8z"/>
<path d="M1026 799 c-19 -19 -19 -19 2 -19 12 0 22 4 22 10 0 5 14 7 33 4 22
-4 27 -2 17 4 -32 20 -55 20 -74 1z"/>
<path d="M1990 808 c-19 -5 -39 -13 -44 -18 -5 -5 10 -3 32 3 22 7 44 16 48
20 8 8 10 8 -36 -5z"/>
<path d="M2093 794 c-3 -8 -1 -20 5 -26 8 -8 9 -5 5 11 -3 11 -1 21 5 21 6 0
13 -8 15 -17 4 -14 5 -12 6 5 1 26 -26 31 -36 6z"/>
<path d="M943 783 c9 -2 25 -2 35 0 9 3 1 5 -18 5 -19 0 -27 -2 -17 -5z"/>
<path d="M2525 770 c-21 -23 -21 -23 23 -38 31 -11 33 -10 27 10 -5 14 -3 18
4 14 6 -4 11 -15 11 -26 0 -15 18 -30 36 -30 3 0 4 17 2 37 -3 33 -6 37 -30
38 -14 0 -30 3 -34 8 -11 11 -19 9 -39 -13z"/>
<path d="M1880 770 c0 -5 -6 -8 -12 -6 -7 1 -10 1 -6 -1 4 -2 5 -12 2 -21 -5
-15 -4 -15 6 1 11 18 30 23 30 9 0 -5 -9 -18 -20 -30 -22 -23 -11 -31 12 -9 7
8 19 12 25 10 10 -4 10 3 2 26 -10 28 -39 44 -39 21z"/>
<path d="M2013 773 c-22 -8 -14 -25 7 -18 11 4 20 2 20 -4 0 -6 -9 -11 -19
-11 -29 0 -35 -17 -11 -32 24 -15 26 -28 4 -28 -8 0 -13 4 -10 8 8 14 -39 35
-61 28 -11 -4 -26 -18 -33 -31 -14 -25 -44 -33 -55 -15 -3 6 -11 10 -17 10 -6
0 -1 -11 12 -25 18 -19 27 -22 41 -14 15 7 17 6 13 -5 -3 -8 -15 -17 -27 -20
-25 -6 -115 -63 -140 -87 -15 -16 -14 -17 11 -22 15 -3 88 -23 162 -46 102
-30 138 -37 148 -29 10 9 15 9 21 0 11 -18 171 17 164 35 -3 7 -1 13 3 13 5 0
9 16 9 35 0 19 -3 35 -6 35 -12 0 -31 -29 -25 -39 13 -20 -5 -37 -33 -33 -19
3 -37 -4 -58 -22 -17 -14 -35 -26 -39 -26 -5 0 2 9 16 20 l25 20 -35 -6 c-19
-3 -41 -7 -47 -10 -16 -4 -17 13 -2 18 7 2 13 16 15 31 4 39 -13 24 -27 -23
-7 -22 -16 -40 -21 -40 -5 0 -8 6 -6 13 3 14 -30 105 -46 126 -9 12 -8 13 6 9
14 -6 12 2 -8 49 -14 30 -23 60 -21 66 2 6 13 -15 26 -46 16 -38 27 -54 37
-50 7 3 12 10 11 16 -1 7 7 12 18 13 27 0 55 14 55 26 0 6 -8 7 -17 3 -10 -3
-20 -7 -23 -8 -3 -1 -6 3 -7 8 -1 6 5 9 13 7 8 -2 14 2 14 8 0 5 -6 10 -13 10
-7 0 -13 9 -13 20 0 17 2 18 16 5 9 -8 23 -15 31 -14 8 0 4 4 -8 9 -13 5 -23
18 -23 29 0 22 -27 41 -47 34z m-14 -104 c14 -40 -2 -36 -22 6 -13 27 -13 33
-2 29 7 -3 18 -19 24 -35z m-59 1 c0 -5 -4 -10 -10 -10 -5 0 -10 5 -10 10 0 6
5 10 10 10 6 0 10 -4 10 -10z m15 -40 c9 -27 -6 -50 -16 -24 -4 10 -8 25 -8
32 -1 20 17 14 24 -8z m-34 -24 c-10 -11 -7 -17 11 -30 12 -9 18 -16 13 -16
-5 0 -4 -5 3 -12 21 -21 13 -32 -10 -12 l-23 19 19 -22 c10 -13 22 -20 26 -18
10 6 42 -43 35 -55 -5 -8 -131 22 -143 35 -10 10 16 5 77 -14 61 -19 76 -15
44 10 -14 12 -16 12 -8 0 6 -11 4 -13 -11 -7 -10 4 -31 10 -46 13 -15 3 -34
16 -43 29 -13 21 -18 22 -40 12 -19 -9 -22 -14 -14 -24 9 -11 6 -12 -20 -3
-17 6 -31 13 -31 16 0 3 7 2 16 -1 14 -6 15 -4 4 9 -7 9 -9 15 -4 14 37 -7 65
3 74 26 12 31 34 32 54 3 9 -12 16 -17 16 -11 0 7 -4 14 -10 18 -11 7 -2 35
12 35 6 0 6 -6 -1 -14z m-91 -36 c0 -5 -2 -10 -4 -10 -3 0 -8 5 -11 10 -3 6
-1 10 4 10 6 0 11 -4 11 -10z m20 -49 c0 -6 -4 -13 -10 -16 -5 -3 -10 1 -10 9
0 9 5 16 10 16 6 0 10 -4 10 -9z"/>
<path d="M630 750 c6 -11 15 -20 20 -20 5 0 2 -16 -6 -36 -17 -41 -15 -46 20
-46 14 0 27 -7 30 -14 3 -7 22 -20 42 -29 20 -8 35 -18 31 -21 -3 -3 -16 0
-29 6 -19 10 -18 8 6 -14 l29 -26 -36 0 c-21 0 -37 -5 -37 -11 0 -6 9 -9 20
-6 11 3 20 1 20 -5 0 -5 10 -6 23 -3 16 5 18 4 8 -4 -12 -8 -9 -11 15 -17 16
-4 35 -11 41 -16 7 -6 21 -7 30 -3 17 6 17 7 -1 21 -11 7 -16 17 -12 21 3 4
21 -8 39 -26 25 -26 27 -31 10 -22 -15 8 -23 8 -23 1 0 -5 6 -11 13 -12 25 -3
33 -6 87 -32 30 -14 44 -24 30 -21 -19 4 -5 -13 55 -69 44 -41 81 -73 83 -71
7 6 -9 45 -16 41 -4 -2 -8 6 -8 18 -1 12 -10 42 -21 66 -11 25 -30 71 -43 103
-22 56 -24 59 -53 53 -23 -5 -28 -3 -23 9 3 8 1 17 -5 20 -5 4 -12 -1 -16 -11
-8 -21 26 -49 41 -34 15 15 24 12 31 -10 4 -12 0 -26 -10 -36 -20 -20 -2 -47
26 -39 13 4 19 1 19 -8 0 -23 -50 -18 -96 9 -34 19 -41 28 -37 47 6 29 -12 44
-32 27 -11 -9 -16 -7 -24 9 -16 29 -15 30 40 55 28 13 46 27 41 30 -14 9 -108
-45 -118 -68 -11 -26 -33 -27 -48 -3 -8 14 -8 20 4 27 8 5 21 8 28 5 15 -5 72
24 72 37 0 4 3 7 8 7 21 -4 31 2 26 15 -3 9 -12 12 -22 8 -15 -5 -15 -4 -2 12
13 17 15 17 32 -4 10 -12 18 -18 19 -14 0 5 9 -10 19 -33 11 -24 26 -43 35
-43 18 0 18 1 5 37 -9 26 -9 27 5 9 8 -11 15 -26 15 -33 0 -8 12 -13 33 -12
29 1 30 2 7 8 -14 4 -26 15 -28 25 -3 12 0 16 7 11 7 -4 18 -2 26 5 14 12 31
-2 21 -18 -10 -16 12 -34 37 -30 20 2 24 6 18 17 -8 12 -12 12 -25 2 -9 -8
-16 -9 -16 -3 0 5 10 16 22 24 22 15 22 15 -15 22 -21 4 -42 4 -47 1 -6 -4
-17 1 -26 10 -15 14 -12 15 26 9 33 -5 42 -4 38 6 -2 8 -10 16 -18 18 -7 3
-10 0 -6 -7 5 -7 1 -9 -9 -5 -14 6 -14 8 2 24 10 10 21 16 26 13 4 -2 7 0 7 4
0 5 11 10 25 11 25 2 34 -11 16 -23 -6 -3 -8 -14 -6 -25 3 -14 -1 -17 -12 -13
-11 4 -14 2 -9 -5 4 -7 14 -12 22 -12 14 0 18 12 14 39 -1 9 4 12 14 8 9 -4
16 -2 16 4 0 5 13 0 30 -12 16 -13 32 -20 35 -17 3 3 -22 22 -55 42 -58 36
-60 37 -91 21 -31 -16 -44 -14 -44 8 -1 7 -6 11 -13 10 -6 -2 -9 4 -6 12 4 10
0 15 -11 15 -11 0 -15 -5 -11 -16 3 -8 2 -12 -4 -9 -6 3 -10 -1 -10 -9 0 -21
-36 -40 -46 -24 -4 6 5 21 22 35 16 12 24 23 18 23 -6 0 -19 -9 -29 -20 -21
-23 -35 -26 -35 -6 0 8 8 16 18 19 9 2 -4 4 -31 4 -26 -1 -42 -4 -35 -8 9 -6
9 -11 0 -22 -10 -11 -9 -17 3 -27 14 -12 14 -15 -1 -31 -28 -31 -36 -22 -32
36 l3 55 -123 0 c-120 0 -122 -1 -112 -20z m100 -4 c0 -8 4 -18 10 -21 6 -3 7
1 4 9 -3 9 -1 16 5 16 6 0 11 -7 11 -16 0 -8 5 -12 10 -9 6 4 8 10 5 14 -5 8
65 24 73 17 2 -2 0 -25 -4 -51 l-7 -47 -37 4 c-21 2 -36 0 -34 -4 7 -11 -48
-9 -66 2 -8 5 -11 10 -6 10 5 0 2 7 -5 16 -7 9 -14 23 -16 32 -1 9 -7 18 -14
21 -17 5 5 16 41 19 21 2 30 -2 30 -12z m206 -33 c-3 -3 0 -15 6 -27 8 -15 3
-13 -20 9 -18 17 -28 31 -22 33 5 2 10 11 10 20 0 13 4 11 16 -6 9 -13 13 -26
10 -29z m130 -4 c3 -5 -6 -14 -20 -20 -13 -6 -27 -20 -29 -30 -6 -22 -42 -26
-50 -6 -8 22 9 40 32 34 11 -2 28 2 38 10 17 14 17 14 1 9 -11 -3 -18 0 -18 8
0 15 36 11 46 -5z m-396 -29 c9 -17 8 -20 -9 -20 -14 0 -18 5 -14 20 3 11 7
20 9 20 2 0 8 -9 14 -20z m146 -37 c-25 -7 -47 -28 -38 -38 4 -4 -3 -2 -15 4
-13 6 -23 17 -23 23 0 7 5 6 15 -2 12 -10 15 -10 15 4 0 12 9 16 33 15 20 -1
25 -3 13 -6z m52 -7 c-7 -8 -16 -12 -21 -9 -11 7 2 23 19 23 12 0 12 -2 2 -14z
m-143 -6 c3 -5 1 -10 -4 -10 -6 0 -11 5 -11 10 0 6 2 10 4 10 3 0 8 -4 11 -10z
m104 -14 c10 -12 8 -13 -8 -9 -12 3 -18 9 -15 14 7 12 10 11 23 -5z m91 -106
c0 -5 -4 -10 -10 -10 -5 0 -10 5 -10 10 0 6 5 10 10 10 6 0 10 -4 10 -10z
m115 -30 c3 -5 1 -10 -4 -10 -6 0 -11 5 -11 10 0 6 2 10 4 10 3 0 8 -4 11 -10z
m15 -81 c0 -5 -4 -9 -10 -9 -5 0 -10 7 -10 16 0 8 5 12 10 9 6 -3 10 -10 10
-16z m44 -35 c4 -15 4 -29 1 -32 -8 -9 -47 37 -40 48 12 19 33 10 39 -16z"/>
<path d="M718 663 c7 -3 16 -2 19 1 4 3 -2 6 -13 5 -11 0 -14 -3 -6 -6z"/>
<path d="M2740 760 c0 -5 5 -10 10 -10 6 0 10 5 10 10 0 6 -4 10 -10 10 -5 0
-10 -4 -10 -10z"/>
<path d="M2650 750 c8 -5 20 -10 25 -10 6 0 3 5 -5 10 -8 5 -19 10 -25 10 -5
0 -3 -5 5 -10z"/>
<path d="M1780 730 c-8 -15 -6 -21 9 -30 11 -5 28 -10 38 -9 13 0 12 3 -7 10
-33 13 -35 16 -20 34 8 10 9 15 2 15 -6 0 -16 -9 -22 -20z"/>
<path d="M2697 709 c6 -29 5 -31 -15 -20 -11 6 -27 11 -34 11 -7 -1 0 -8 15
-16 16 -9 31 -13 34 -10 4 3 12 1 20 -5 7 -7 24 -13 37 -14 19 -3 23 1 18 18
-3 14 -1 18 6 13 7 -4 12 -2 12 4 0 7 -6 10 -14 7 -8 -3 -17 1 -20 10 -5 12
-9 11 -24 -7 -17 -21 -18 -21 -18 -2 0 11 4 18 8 16 4 -3 8 -3 8 0 0 3 -9 10
-20 16 -18 10 -19 8 -13 -21z m58 -19 c3 -5 1 -10 -4 -10 -6 0 -11 5 -11 10 0
6 2 10 4 10 3 0 8 -4 11 -10z"/>
<path d="M496 707 c-13 -10 -16 -20 -12 -35 9 -26 14 -27 41 -6 19 14 19 16 3
28 -10 7 -15 16 -11 19 11 12 -2 7 -21 -6z m14 -38 c0 -6 -4 -7 -10 -4 -5 3
-10 11 -10 16 0 6 5 7 10 4 6 -3 10 -11 10 -16z"/>
<path d="M2138 713 c6 -2 18 -2 25 0 6 3 1 5 -13 5 -14 0 -19 -2 -12 -5z"/>
<path d="M1754 689 c-3 -6 0 -15 7 -20 12 -8 12 -11 -1 -18 -8 -6 -11 -13 -7
-17 4 -4 13 -2 19 4 18 18 33 15 18 -3 -16 -20 -1 -38 23 -29 23 9 21 19 -8
42 -13 11 -23 21 -21 23 2 2 -2 10 -9 16 -10 9 -16 10 -21 2z m66 -63 c0 -3
-4 -8 -10 -11 -5 -3 -10 -1 -10 4 0 6 5 11 10 11 6 0 10 -2 10 -4z"/>
<path d="M1875 690 c-16 -7 -17 -9 -3 -9 9 -1 20 4 23 9 7 11 7 11 -20 0z"/>
<path d="M2101 691 c-11 -7 -10 -13 4 -35 14 -21 20 -24 31 -15 8 6 14 20 14
29 0 10 6 21 13 23 6 3 -1 6 -18 6 -16 0 -36 -3 -44 -8z m39 -21 c0 -5 -7 -10
-16 -10 -8 0 -12 5 -9 10 3 6 10 10 16 10 5 0 9 -4 9 -10z"/>
<path d="M2606 673 c9 -38 14 -42 14 -10 0 14 -5 29 -10 32 -7 4 -8 -3 -4 -22z"/>
<path d="M2790 660 c0 -5 5 -10 11 -10 5 0 7 5 4 10 -3 6 -8 10 -11 10 -2 0
-4 -4 -4 -10z"/>
<path d="M2173 644 c-8 -22 11 -37 36 -29 17 5 19 10 11 26 -13 23 -38 25 -47
3z m37 -8 c0 -3 -4 -8 -10 -11 -5 -3 -10 -1 -10 4 0 6 5 11 10 11 6 0 10 -2
10 -4z"/>
<path d="M616 613 c-4 -15 -9 -36 -12 -45 -4 -12 0 -18 10 -18 9 0 16 4 16 9
0 6 11 6 28 0 17 -6 38 -6 52 -1 l24 9 -27 18 c-15 9 -24 22 -20 28 3 6 1 7
-5 3 -6 -4 -22 0 -36 9 -23 15 -24 15 -30 -12z m60 -31 c-7 -7 -46 9 -46 18 0
5 11 4 25 -2 14 -6 23 -13 21 -16z"/>
<path d="M1588 633 c7 -3 16 -2 19 1 4 3 -2 6 -13 5 -11 0 -14 -3 -6 -6z"/>
<path d="M2092 604 c-8 -17 -8 -24 1 -28 7 -2 4 -5 -5 -5 -31 -2 -19 -26 18
-40 26 -9 39 -10 47 -2 6 6 15 11 21 11 5 0 1 -6 -9 -14 -18 -13 -18 -14 3
-25 26 -14 55 -14 47 0 -4 6 -14 8 -24 5 -9 -3 -3 5 14 19 16 13 26 28 21 32
-4 4 -13 0 -20 -9 -12 -16 -14 -15 -35 5 -17 17 -21 18 -15 5 5 -14 1 -18 -19
-18 -14 0 -29 5 -32 10 -3 6 -1 10 5 10 6 0 8 11 6 24 -6 31 13 39 38 17 18
-15 18 -15 6 5 -18 29 -55 28 -68 -2z"/>
<path d="M1425 605 c-27 -7 -45 -13 -40 -14 6 -1 21 -4 34 -8 17 -4 22 -3 17
5 -4 7 -3 12 3 12 5 0 11 -6 14 -12 3 -10 7 -10 17 -1 15 14 40 6 40 -13 0 -8
8 -14 18 -14 9 0 28 -3 42 -6 14 -3 3 7 -25 21 -27 15 -54 30 -60 34 -5 5 -32
2 -60 -4z"/>
<path d="M2130 590 c0 -5 5 -10 11 -10 5 0 7 5 4 10 -3 6 -8 10 -11 10 -2 0
-4 -4 -4 -10z"/>
<path d="M2305 590 c-3 -5 11 -30 32 -55 41 -50 45 -53 36 -28 -5 12 -3 14 7
8 9 -5 11 -4 6 4 -4 6 -11 9 -16 6 -11 -7 -33 32 -25 45 3 6 12 10 18 10 8 0
7 -3 -2 -9 -7 -5 -10 -14 -6 -21 6 -9 9 -9 16 1 23 37 0 52 -34 22 -19 -17
-20 -17 -14 -1 7 19 -8 34 -18 18z"/>
<path d="M1476 582 c-3 -5 1 -15 8 -21 11 -10 14 -9 12 3 -3 21 -13 29 -20 18z"/>
<path d="M2000 581 c0 -5 14 -14 30 -20 17 -5 30 -8 30 -6 0 3 -13 11 -30 20
-16 9 -30 11 -30 6z"/>
<path d="M1078 553 c6 -2 18 -2 25 0 6 3 1 5 -13 5 -14 0 -19 -2 -12 -5z"/>
<path d="M2275 528 l-16 -33 21 24 c11 13 20 27 20 32 0 18 -10 8 -25 -23z"/>
<path d="M544 501 c1 -16 4 -27 9 -24 10 6 9 53 -2 53 -4 0 -8 -13 -7 -29z"/>
<path d="M1333 505 c0 -8 6 -15 13 -15 7 0 16 -5 20 -11 5 -8 -1 -10 -18 -7
-16 3 -25 0 -25 -9 0 -14 3 -15 31 -4 11 4 20 15 22 24 1 10 -2 15 -7 11 -5
-3 -9 -1 -9 5 0 5 6 12 13 14 6 3 0 6 -14 6 -16 1 -26 -4 -26 -14z"/>
<path d="M1281 501 c-9 -6 -10 -11 -2 -15 6 -4 11 -3 11 3 0 5 8 12 18 14 12
3 13 5 2 6 -8 0 -21 -3 -29 -8z"/>
<path d="M770 490 c0 -16 46 -36 68 -31 20 5 16 8 -23 22 -25 9 -45 13 -45 9z"/>
<path d="M1720 492 c0 -5 17 -13 38 -18 38 -8 46 -10 60 -14 4 -1 10 -2 15 -1
4 0 7 -4 7 -9 0 -6 -11 -8 -23 -6 -13 2 -30 0 -38 -5 -17 -10 83 -11 121 0 19
5 8 11 -60 30 -47 13 -93 25 -102 28 -10 3 -18 1 -18 -5z"/>
<path d="M2338 483 c7 -3 16 -2 19 1 4 3 -2 6 -13 5 -11 0 -14 -3 -6 -6z"/>
<path d="M1398 468 c5 -5 16 -8 23 -6 8 3 3 7 -10 11 -17 4 -21 3 -13 -5z"/>
<path d="M1252 455 c-11 -13 -9 -15 15 -14 15 0 22 3 15 6 -6 2 -10 9 -6 14 9
15 -10 10 -24 -6z"/>
<path d="M2658 463 c17 -7 14 -24 -9 -52 -18 -23 -21 -23 -36 -8 -15 15 -15
18 2 37 23 25 2 27 -25 2 -19 -18 -19 -19 40 -77 32 -33 57 -61 55 -64 -3 -2
-14 4 -25 14 -11 10 -20 13 -20 7 0 -11 38 -42 51 -42 11 0 5 26 -10 44 -7 9
-10 23 -7 32 4 12 2 15 -9 10 -17 -6 -21 9 -5 19 6 4 8 10 5 14 -2 5 4 16 15
26 23 21 16 45 -14 44 -11 0 -15 -3 -8 -6z"/>
<path d="M576 435 c4 -8 2 -15 -2 -15 -5 0 -20 -10 -34 -21 -23 -18 -23 -19
-2 -9 12 6 22 8 22 4 0 -3 11 1 24 10 16 10 37 14 58 11 l33 -5 -33 15 c-18 9
-38 12 -44 9 -7 -4 -8 -2 -4 4 4 7 1 12 -8 12 -10 0 -13 -6 -10 -15z"/>
<path d="M1376 442 c-3 -5 8 -6 25 -4 16 2 29 6 29 8 0 8 -49 4 -54 -4z"/>
<path d="M1173 433 c9 -2 23 -2 30 0 6 3 -1 5 -18 5 -16 0 -22 -2 -12 -5z"/>
<path d="M1320 420 c12 -23 22 -27 14 -6 -3 8 2 16 13 19 12 3 8 5 -10 6 -25
1 -27 -1 -17 -19z"/>
<path d="M1168 413 c6 -2 18 -2 25 0 6 3 1 5 -13 5 -14 0 -19 -2 -12 -5z"/>
<path d="M1502 400 c0 -14 2 -19 5 -12 2 6 2 18 0 25 -3 6 -5 1 -5 -13z"/>
<path d="M2250 394 c-22 -12 -23 -14 -5 -14 33 0 -4 -20 -40 -21 -16 0 -24 -3
-17 -6 17 -7 15 -23 -3 -23 -8 0 -15 5 -15 10 0 6 -10 10 -22 10 -22 0 -22 0
2 -13 34 -18 91 -18 111 0 18 16 26 10 53 -44 16 -33 16 -33 -11 -39 -16 -3
-34 -8 -42 -10 -8 -2 -21 5 -29 17 l-15 22 -19 -23 c-38 -47 -15 -83 36 -56
24 12 25 15 9 18 -10 3 8 10 40 17 48 10 57 16 52 29 -11 26 -11 37 0 40 6 1
10 -9 10 -23 1 -24 11 -43 19 -34 2 2 1 19 -2 38 -3 21 -11 35 -23 38 -18 5
-36 40 -25 50 5 6 -24 33 -34 32 -3 -1 -16 -7 -30 -15z m45 -14 c3 -5 -1 -10
-9 -10 -9 0 -16 5 -16 10 0 6 4 10 9 10 6 0 13 -4 16 -10z m25 -64 c0 -12 -5
-7 -19 24 -11 24 -11 24 3 6 9 -11 16 -24 16 -30z m-70 30 c0 -3 -4 -8 -10
-11 -5 -3 -10 -1 -10 4 0 6 5 11 10 11 6 0 10 -2 10 -4z m-30 -126 c0 -5 -4
-10 -10 -10 -5 0 -10 5 -10 10 0 6 5 10 10 10 6 0 10 -4 10 -10z"/>
<path d="M1649 374 c-5 -15 -8 -29 -5 -31 2 -2 8 10 14 26 13 38 5 41 -9 5z"/>
<path d="M1679 390 c-3 -20 -4 -25 -13 -40 -5 -8 -5 -12 -1 -7 5 4 17 -1 28
-10 18 -17 19 -17 33 1 17 24 0 49 -27 41 -14 -5 -17 -2 -13 9 3 9 3 16 0 16
-3 0 -7 -4 -7 -10z m41 -40 c0 -5 -4 -10 -10 -10 -5 0 -10 5 -10 10 0 6 5 10
10 10 6 0 10 -4 10 -10z"/>
<path d="M2188 373 c6 -2 18 -2 25 0 6 3 1 5 -13 5 -14 0 -19 -2 -12 -5z"/>
<path d="M1511 337 c0 -21 -5 -36 -10 -32 -13 8 -25 -35 -13 -47 5 -5 18 -8
28 -6 20 4 20 7 5 83 l-8 40 -2 -38z m9 -56 c0 -6 -4 -13 -10 -16 -5 -3 -10 1
-10 9 0 9 5 16 10 16 6 0 10 -4 10 -9z"/>
<path d="M1491 344 c0 -11 3 -14 6 -6 3 7 2 16 -1 19 -3 4 -6 -2 -5 -13z"/>
<path d="M1985 350 c4 -6 11 -8 16 -5 5 4 9 1 9 -5 0 -7 -8 -9 -22 -5 -22 7
-22 6 -6 -11 14 -14 20 -15 32 -5 19 16 10 41 -16 41 -10 0 -16 -5 -13 -10z"/>
<path d="M2966 341 c-3 -4 3 -30 14 -57 l19 -49 -1 52 c0 33 -5 54 -14 57 -7
3 -16 2 -18 -3z"/>
<path d="M1613 304 c-27 -29 -28 -37 -9 -53 20 -17 46 -2 46 26 0 15 -4 22
-11 17 -8 -4 -9 0 -4 15 8 26 6 25 -22 -5z m22 -34 c-3 -5 -10 -10 -16 -10 -5
0 -9 5 -9 10 0 6 7 10 16 10 8 0 12 -4 9 -10z"/>
<path d="M1713 269 c-15 -15 -5 -39 17 -39 22 0 35 30 18 42 -17 10 -22 10
-35 -3z m27 -19 c0 -5 -4 -10 -10 -10 -5 0 -10 5 -10 10 0 6 5 10 10 10 6 0
10 -4 10 -10z"/>
<path d="M1810 265 c-12 -14 -11 -18 1 -26 20 -12 34 -6 34 16 0 24 -19 30
-35 10z m30 -15 c0 -5 -4 -10 -10 -10 -5 0 -10 5 -10 10 0 6 5 10 10 10 6 0
10 -4 10 -10z"/>
<path d="M2390 270 c-13 -8 -13 -10 2 -10 9 0 20 5 23 10 8 13 -5 13 -25 0z"/>
<path d="M2131 256 c-9 -10 -8 -16 4 -26 21 -17 51 6 34 26 -6 8 -15 14 -19
14 -4 0 -13 -6 -19 -14z m29 -10 c0 -3 -4 -8 -10 -11 -5 -3 -10 -1 -10 4 0 6
5 11 10 11 6 0 10 -2 10 -4z"/>
<path d="M2438 253 c7 -3 16 -2 19 1 4 3 -2 6 -13 5 -11 0 -14 -3 -6 -6z"/>
<path d="M2375 241 c-6 -11 35 -101 47 -101 4 0 8 -4 8 -10 0 -5 -7 -10 -15
-10 -8 0 -15 8 -15 17 0 13 -3 14 -12 5 -8 -8 -8 -15 2 -27 16 -19 34 -19 50
0 11 13 9 20 -12 43 -32 34 -51 70 -43 82 3 6 4 10 1 10 -3 0 -7 -4 -11 -9z"/>
<path d="M344 226 c-8 -21 3 -36 27 -36 15 0 20 6 17 22 -4 27 -35 37 -44 14z
m26 -16 c0 -5 -2 -10 -4 -10 -3 0 -8 5 -11 10 -3 6 -1 10 4 10 6 0 11 -4 11
-10z"/>
<path d="M1644 225 c-7 -18 3 -35 22 -35 20 0 30 30 13 41 -20 12 -29 11 -35
-6z m26 -15 c0 -5 -2 -10 -4 -10 -3 0 -8 5 -11 10 -3 6 -1 10 4 10 6 0 11 -4
11 -10z"/>
<path d="M2340 229 c11 -7 6 -9 -20 -6 -19 2 -27 2 -17 0 13 -3 15 -8 8 -17
-6 -7 -6 -17 -1 -26 8 -13 13 -13 30 -2 11 7 26 10 31 6 6 -3 3 8 -5 25 -9 17
-22 31 -29 31 -8 0 -7 -4 3 -11z m0 -33 c0 -3 -4 -8 -10 -11 -5 -3 -10 -1 -10
4 0 6 5 11 10 11 6 0 10 -2 10 -4z"/>
<path d="M347 162 c-16 -17 -16 -20 -2 -32 22 -19 42 2 29 30 -9 21 -10 21
-27 2z m23 -17 c0 -8 -4 -15 -10 -15 -5 0 -10 7 -10 15 0 8 5 15 10 15 6 0 10
-7 10 -15z"/>
<path d="M1692 158 c-13 -13 2 -38 23 -38 18 0 26 25 12 39 -14 14 -20 14 -35
-1z"/>
<path d="M1843 159 c-16 -16 -5 -39 17 -39 25 0 35 18 20 35 -15 18 -22 19
-37 4z m27 -19 c0 -5 -4 -10 -10 -10 -5 0 -10 5 -10 10 0 6 5 10 10 10 6 0 10
-4 10 -10z"/>
<path d="M1954 155 c-8 -21 10 -39 30 -32 22 9 20 24 -4 37 -16 9 -22 8 -26
-5z m26 -15 c0 -5 -4 -10 -10 -10 -5 0 -10 5 -10 10 0 6 5 10 10 10 6 0 10 -4
10 -10z"/>
<path d="M2077 146 c-9 -22 19 -42 37 -26 19 15 10 40 -14 40 -10 0 -20 -6
-23 -14z m33 -6 c0 -5 -4 -10 -10 -10 -5 0 -10 5 -10 10 0 6 5 10 10 10 6 0
10 -4 10 -10z"/>
<path d="M267 136 c-8 -20 20 -43 35 -28 14 14 3 42 -16 42 -7 0 -16 -6 -19
-14z m33 -6 c0 -5 -4 -10 -10 -10 -5 0 -10 5 -10 10 0 6 5 10 10 10 6 0 10 -4
10 -10z"/>
<path d="M407 117 c-3 -8 -2 -20 3 -27 11 -18 42 -4 38 17 -4 22 -34 29 -41
10z m33 -11 c0 -3 -4 -8 -10 -11 -5 -3 -10 -1 -10 4 0 6 5 11 10 11 6 0 10 -2
10 -4z"/>
</g>
</svg>
